<svg width="59" height="17" viewBox="0 0 59 17" fill="none" xmlns="http://www.w3.org/2000/svg">
<g clip-path="url(#clip0_84_268)">
<mask id="mask0_84_268" style="mask-type:luminance" maskUnits="userSpaceOnUse" x="0" y="0" width="59" height="16">
<path d="M58.5454 0.171326H0.561523V15.948H58.5454V0.171326Z" fill="white"/>
</mask>
<g mask="url(#mask0_84_268)">
<path d="M3.51285 15.9345C3.48565 15.8938 3.44485 15.8394 3.40405 15.8122C2.50641 14.9145 1.60877 14.0169 0.711132 13.1192C0.670327 13.0785 0.629527 13.0513 0.561523 12.9969C0.629527 12.9288 0.683927 12.888 0.738331 12.8336C1.45916 12.208 2.17999 11.5688 2.90083 10.9431C3.29525 10.6031 3.77127 10.3855 4.30169 10.3855C6.12417 10.3719 7.94663 10.3855 9.75552 10.3855C9.76915 10.3855 9.79635 10.3855 9.82355 10.3991C9.79635 10.4535 9.76915 10.5079 9.75552 10.5623C9.48353 11.0792 9.21148 11.5824 8.95312 12.0992C8.89872 12.208 8.84426 12.2488 8.7219 12.2488C7.76987 12.2488 6.80421 12.2488 5.85216 12.2488C5.79775 12.2488 5.74336 12.2488 5.67535 12.2488C5.67535 12.5616 5.67535 12.8608 5.67535 13.1736C5.72975 13.1736 5.78415 13.1736 5.82496 13.1736C6.98103 13.1736 8.12345 13.1736 9.27951 13.1736C9.40193 13.1736 9.45633 13.1329 9.51073 13.0241C10.0139 12.0584 10.5172 11.0927 11.034 10.1135C11.4012 9.40627 11.9452 8.91663 12.7068 8.67183C13.1013 8.53584 13.5229 8.52221 13.9445 8.54941C13.9173 8.60381 13.9037 8.64464 13.8765 8.68547C12.7885 10.7527 11.7004 12.82 10.626 14.8873C10.5716 14.9825 10.5172 15.0233 10.4084 15.0233C8.5587 15.0233 6.70898 15.0233 4.85931 15.0233C4.77771 15.0233 4.66891 15.0641 4.6009 15.1185C4.28809 15.3497 3.97527 15.6082 3.66246 15.8529C3.62166 15.8801 3.60806 15.921 3.56726 15.9482C3.55366 15.9345 3.54006 15.9345 3.51285 15.9345Z" fill="#575757"/>
<path d="M4.15187 9.07974C4.24707 8.5357 4.32868 8.01885 4.42388 7.50207C4.50548 6.98523 4.60069 6.46838 4.6959 5.95158C4.7095 5.85637 4.6959 5.78838 4.61429 5.72037C3.92066 5.05394 3.22703 4.37391 2.5334 3.70748C2.4926 3.66668 2.45179 3.62588 2.38379 3.57147C2.5062 3.54427 2.6014 3.53067 2.6966 3.51707C3.62145 3.36747 4.54629 3.23146 5.47113 3.09545C5.57993 3.08185 5.63434 3.04105 5.67514 2.94585C6.11036 2.07541 6.54559 1.20497 6.96721 0.348134C6.99441 0.293731 7.02161 0.25293 7.06238 0.171326C7.10321 0.239329 7.1304 0.280131 7.14397 0.334533C7.57922 1.20497 8.01447 2.07541 8.44965 2.95945C8.49048 3.05465 8.54488 3.09545 8.65368 3.10906C9.6601 3.24506 10.653 3.39467 11.6594 3.54427C11.673 3.54427 11.7002 3.55787 11.741 3.57147C11.6866 3.62588 11.6594 3.66668 11.6186 3.69388C10.9114 4.37391 10.2177 5.06754 9.51048 5.74757C9.44251 5.81558 9.41531 5.88358 9.42888 5.99238C9.60571 6.9988 9.7689 8.00529 9.94573 9.01171C9.94573 9.03891 9.95936 9.06611 9.95936 9.10694C9.89133 9.07974 9.83693 9.05254 9.7961 9.02534C8.9393 8.57653 8.06887 8.11408 7.212 7.66527C7.10321 7.61087 7.02161 7.61087 6.91281 7.66527C6.05595 8.11408 5.21272 8.5629 4.35588 9.01171C4.28787 9.01171 4.23347 9.03891 4.15187 9.07974Z" fill="#575757"/>
<path d="M23.6514 4.73176H22.4958V6.71536H21.8403V1.7995H23.4617C24.0137 1.7995 24.4449 1.92024 24.7381 2.17897C25.0313 2.4377 25.1866 2.79992 25.1866 3.28288C25.1866 3.59335 25.1003 3.85209 24.9451 4.07632C24.7898 4.30055 24.5484 4.47303 24.2551 4.57652L25.4108 6.66361V6.69813H24.7208L23.6514 4.73176ZM22.4958 4.19705H23.4962C23.8239 4.19705 24.0654 4.11081 24.2551 3.95557C24.4449 3.78308 24.5484 3.55885 24.5484 3.28288C24.5484 2.9724 24.4621 2.74817 24.2724 2.59293C24.0826 2.4377 23.8239 2.35146 23.4962 2.35146H22.5131V4.19705H22.4958Z" fill="#575757"/>
<path d="M27.5149 6.78425C27.0147 6.78425 26.618 6.62901 26.3075 6.30131C25.997 5.97359 25.8418 5.54238 25.8418 5.00767V4.88693C25.8418 4.52471 25.9108 4.19699 26.0488 3.92101C26.1868 3.64504 26.3765 3.4208 26.6352 3.24831C26.894 3.07583 27.1527 3.00684 27.4459 3.00684C27.9116 3.00684 28.2911 3.16207 28.5498 3.47255C28.8086 3.78302 28.9465 4.23149 28.9465 4.81794V5.07666H26.48C26.4972 5.43888 26.6007 5.73211 26.7905 5.93909C26.9802 6.14608 27.2389 6.26682 27.5494 6.26682C27.7736 6.26682 27.9634 6.21507 28.1014 6.12883C28.2394 6.04258 28.3946 5.92185 28.4981 5.76661L28.8776 6.05984C28.5844 6.5428 28.1186 6.78425 27.5149 6.78425ZM27.4287 3.50705C27.1699 3.50705 26.963 3.59329 26.7905 3.78302C26.618 3.97275 26.5145 4.21423 26.48 4.55921H28.3083V4.50747C28.2911 4.19699 28.2048 3.93826 28.0497 3.76577C27.8944 3.59329 27.7046 3.50705 27.4287 3.50705Z" fill="#575757"/>
<path d="M31.7758 5.74934C31.7758 5.57685 31.7068 5.45611 31.5861 5.35262C31.4654 5.24913 31.2411 5.18014 30.9307 5.11114C30.6202 5.04215 30.3614 4.9559 30.1717 4.86966C29.982 4.78342 29.844 4.66268 29.7577 4.52469C29.6715 4.3867 29.6197 4.23146 29.6197 4.05898C29.6197 3.76575 29.7405 3.50703 29.9992 3.30004C30.2579 3.09306 30.5684 2.98956 30.9652 2.98956C31.3791 2.98956 31.7068 3.09306 31.9655 3.31729C32.2243 3.54152 32.345 3.80025 32.345 4.12797H31.7241C31.7241 3.95549 31.6551 3.8175 31.4999 3.67951C31.3446 3.54152 31.1721 3.48977 30.9479 3.48977C30.7237 3.48977 30.5512 3.54152 30.4132 3.64501C30.2752 3.7485 30.2235 3.86925 30.2235 4.02448C30.2235 4.17972 30.2752 4.28321 30.3959 4.36945C30.5167 4.4557 30.7237 4.52469 31.0341 4.59369C31.3446 4.66268 31.6034 4.74892 31.7931 4.83517C31.9828 4.92141 32.1381 5.04215 32.2243 5.18013C32.3105 5.31812 32.3623 5.47336 32.3623 5.68034C32.3623 6.00807 32.2243 6.26679 31.9655 6.45652C31.7068 6.64629 31.3619 6.74978 30.9479 6.74978C30.6547 6.74978 30.3959 6.69803 30.1717 6.59454C29.9474 6.49104 29.775 6.35303 29.637 6.16331C29.499 5.97357 29.4473 5.78384 29.4473 5.55961H30.0682C30.0855 5.76659 30.1544 5.93907 30.327 6.05982C30.4994 6.18055 30.6891 6.24955 30.9479 6.24955C31.1894 6.24955 31.3791 6.1978 31.5171 6.11156C31.6551 6.02532 31.7758 5.90457 31.7758 5.74934Z" fill="#575757"/>
<path d="M36.295 4.92141C36.295 5.47336 36.1743 5.92183 35.9156 6.26679C35.6568 6.61177 35.3118 6.76701 34.8806 6.76701C34.4322 6.76701 34.0872 6.629 33.8285 6.35303V8.11238H33.2075V3.05856H33.7767L33.8112 3.45528C34.0699 3.14481 34.4149 2.98956 34.8634 2.98956C35.2946 2.98956 35.6396 3.16205 35.8983 3.48977C36.157 3.8175 36.2778 4.28321 36.2778 4.86966V4.92141H36.295ZM35.674 4.85241C35.674 4.43844 35.5878 4.11072 35.4153 3.88649C35.2428 3.66226 35.0014 3.52427 34.6909 3.52427C34.3114 3.52427 34.0354 3.69676 33.8457 4.02448V5.76658C34.0354 6.09431 34.3114 6.26679 34.7081 6.26679C35.0014 6.26679 35.2428 6.14606 35.4153 5.90457C35.5878 5.6631 35.674 5.31812 35.674 4.85241Z" fill="#575757"/>
<path d="M36.9155 4.85243C36.9155 4.49021 36.9845 4.17974 37.1225 3.88651C37.2605 3.59329 37.4502 3.3863 37.709 3.23107C37.9676 3.07583 38.2437 3.00684 38.5714 3.00684C39.0716 3.00684 39.4683 3.17932 39.7787 3.52429C40.0892 3.86927 40.2445 4.31773 40.2445 4.88693V4.93867C40.2445 5.30089 40.1755 5.61137 40.0375 5.88735C39.8995 6.16332 39.7098 6.38756 39.451 6.5428C39.1923 6.69805 38.9163 6.78425 38.5886 6.78425C38.0884 6.78425 37.6917 6.61178 37.3812 6.26682C37.0708 5.92185 36.9155 5.47338 36.9155 4.90418V4.85243ZM37.5537 4.92143C37.5537 5.31815 37.6399 5.64587 37.8297 5.88735C38.0194 6.12883 38.2609 6.24957 38.5886 6.24957C38.8991 6.24957 39.1578 6.12883 39.3475 5.8701C39.5373 5.61137 39.6235 5.2664 39.6235 4.83519C39.6235 4.43846 39.5373 4.11074 39.3303 3.86927C39.1233 3.62778 38.8819 3.4898 38.5714 3.4898C38.2609 3.4898 38.0194 3.61053 37.8297 3.85201C37.6399 4.0935 37.5537 4.47296 37.5537 4.92143Z" fill="#575757"/>
<path d="M41.6074 3.05858L41.6247 3.52429C41.9006 3.17932 42.2629 3.00684 42.7113 3.00684C43.4875 3.00684 43.867 3.43805 43.8842 4.31773V6.7325H43.2633V4.31773C43.2633 4.059 43.1943 3.86927 43.0908 3.73128C42.9873 3.59329 42.7976 3.54154 42.5388 3.54154C42.3319 3.54154 42.1594 3.59329 42.0041 3.69678C41.8489 3.80027 41.7282 3.93826 41.6419 4.12799V6.7325H41.021V3.05858H41.6074Z" fill="#575757"/>
<path d="M46.954 5.74934C46.954 5.57685 46.885 5.45611 46.7643 5.35262C46.6436 5.24913 46.4193 5.18014 46.1089 5.11114C45.7984 5.04215 45.5397 4.9559 45.3499 4.86966C45.1602 4.78342 45.0222 4.66268 44.9359 4.52469C44.8497 4.3867 44.798 4.23146 44.798 4.05898C44.798 3.76575 44.9187 3.50703 45.1774 3.30004C45.4362 3.09306 45.7466 2.98956 46.1433 2.98956C46.5573 2.98956 46.885 3.09306 47.1438 3.31729C47.4025 3.54152 47.5232 3.80025 47.5232 4.12797H46.9023C46.9023 3.95549 46.8333 3.8175 46.678 3.67951C46.5228 3.54152 46.3503 3.48977 46.1261 3.48977C45.9019 3.48977 45.7294 3.54152 45.5914 3.64501C45.4534 3.7485 45.4016 3.86925 45.4016 4.02448C45.4016 4.17972 45.4534 4.28321 45.5741 4.36945C45.6949 4.4557 45.9019 4.52469 46.2123 4.59369C46.5228 4.66268 46.7815 4.74892 46.9713 4.83517C47.161 4.92141 47.3162 5.04215 47.4025 5.18013C47.4887 5.31812 47.5405 5.47336 47.5405 5.68034C47.5405 6.00807 47.4025 6.26679 47.1438 6.45652C46.885 6.64629 46.5401 6.74978 46.1261 6.74978C45.8328 6.74978 45.5742 6.69803 45.3499 6.59454C45.1257 6.49104 44.9532 6.35303 44.8152 6.16331C44.6772 5.97357 44.6255 5.78384 44.6255 5.55961H45.2464C45.2637 5.76659 45.3327 5.93907 45.5051 6.05982C45.6776 6.18055 45.8674 6.24955 46.1261 6.24955C46.3676 6.24955 46.5573 6.1978 46.6953 6.11156C46.8333 6.02532 46.954 5.90457 46.954 5.74934Z" fill="#575757"/>
<path d="M48.3857 2.09275C48.3857 1.98926 48.4202 1.90301 48.4719 1.83402C48.5237 1.76502 48.6272 1.73053 48.7479 1.73053C48.8687 1.73053 48.9549 1.76502 49.0239 1.83402C49.0929 1.90301 49.1101 1.98926 49.1101 2.09275C49.1101 2.19624 49.0756 2.28248 49.0239 2.35148C48.9722 2.42047 48.8687 2.45497 48.7479 2.45497C48.6272 2.45497 48.5409 2.42047 48.4719 2.35148C48.403 2.28248 48.3857 2.19624 48.3857 2.09275ZM49.0584 6.71534H48.4375V3.05867H49.0584V6.71534Z" fill="#575757"/>
<path d="M53.1466 4.92141C53.1466 5.47336 53.0259 5.92182 52.7671 6.2668C52.5084 6.61176 52.1634 6.76701 51.7322 6.76701C51.2665 6.76701 50.9215 6.61176 50.6628 6.28404L50.6283 6.69803H50.0591V1.52344H50.68V3.45528C50.9388 3.1448 51.2837 2.98957 51.7149 2.98957C52.1461 2.98957 52.5084 3.16206 52.7499 3.48978C52.9913 3.8175 53.1294 4.28321 53.1294 4.86966V4.92141H53.1466ZM52.5256 4.85242C52.5256 4.4212 52.4394 4.09347 52.2842 3.86924C52.1289 3.64501 51.8874 3.52428 51.577 3.52428C51.163 3.52428 50.8698 3.71401 50.6973 4.09347V5.6631C50.887 6.04257 51.1802 6.2323 51.5942 6.2323C51.8874 6.2323 52.1289 6.11156 52.2842 5.88733C52.4394 5.6631 52.5256 5.31813 52.5256 4.85242Z" fill="#575757"/>
<path d="M54.6126 6.71527H53.9917V1.54071H54.6126V6.71527Z" fill="#575757"/>
<path d="M57.1135 6.78425C56.6133 6.78425 56.2166 6.62901 55.9061 6.30131C55.5956 5.97359 55.4404 5.54238 55.4404 5.00767V4.88693C55.4404 4.52471 55.5094 4.19699 55.6474 3.92101C55.7854 3.64504 55.9751 3.4208 56.2338 3.24831C56.4925 3.07583 56.7513 3.00684 57.0445 3.00684C57.5102 3.00684 57.8897 3.16207 58.1484 3.47255C58.4071 3.78302 58.5452 4.23149 58.5452 4.81794V5.07666H56.0786C56.0959 5.43888 56.1993 5.73211 56.389 5.93909C56.5788 6.14608 56.8376 6.26682 57.148 6.26682C57.3723 6.26682 57.562 6.21507 57.7 6.12883C57.838 6.04258 57.9932 5.92185 58.0967 5.76661L58.4762 6.05984C58.1829 6.5428 57.7345 6.78425 57.1135 6.78425ZM57.0445 3.50705C56.7858 3.50705 56.5788 3.59329 56.4063 3.78302C56.2338 3.97275 56.1304 4.21423 56.0959 4.55921H57.907V4.50747C57.8897 4.19699 57.8035 3.93826 57.6482 3.76577C57.493 3.59329 57.3033 3.50705 57.0445 3.50705Z" fill="#575757"/>
<path d="M25.4796 12.9591C25.3071 13.2006 25.0829 13.3731 24.7896 13.4938C24.4965 13.6146 24.1515 13.6663 23.7548 13.6663C23.3581 13.6663 22.9958 13.58 22.6854 13.3903C22.3749 13.2006 22.1334 12.9419 21.9609 12.5968C21.7884 12.2519 21.7021 11.8552 21.7021 11.3895V10.9583C21.7021 10.2166 21.8747 9.64736 22.2196 9.23338C22.5646 8.81946 23.0476 8.6297 23.6685 8.6297C24.186 8.6297 24.5999 8.76771 24.9104 9.02639C25.2209 9.28513 25.4106 9.66459 25.4796 10.1476H24.8242C24.7034 9.49212 24.324 9.1644 23.6685 9.1644C23.2373 9.1644 22.9096 9.31965 22.6854 9.6129C22.4611 9.92333 22.3403 10.3545 22.3403 10.941V11.3377C22.3403 11.8897 22.4611 12.3209 22.7199 12.6486C22.9785 12.9764 23.3063 13.1316 23.7375 13.1316C23.979 13.1316 24.186 13.0971 24.3757 13.0453C24.5654 12.9936 24.7034 12.9073 24.8242 12.7694V11.7H23.6858V11.1653H25.4796V12.9591Z" fill="#575757"/>
<path d="M28.7052 13.6145C28.6707 13.5455 28.6362 13.4075 28.619 13.235C28.3257 13.5283 27.9808 13.6835 27.584 13.6835C27.2218 13.6835 26.9286 13.58 26.7044 13.373C26.4802 13.166 26.3594 12.9073 26.3594 12.5968C26.3594 12.2174 26.4974 11.9242 26.7906 11.7172C27.0838 11.5102 27.4805 11.4067 28.0152 11.4067H28.619V11.1134C28.619 10.8892 28.5499 10.7167 28.4292 10.596C28.3085 10.4752 28.1015 10.4063 27.86 10.4063C27.6358 10.4063 27.4461 10.458 27.3081 10.5787C27.1701 10.6995 27.0838 10.8202 27.0838 10.9927H26.4629C26.4629 10.8029 26.5319 10.6305 26.6526 10.458C26.7734 10.2855 26.9631 10.1475 27.1701 10.0613C27.377 9.97504 27.6358 9.90607 27.8945 9.90607C28.3085 9.90607 28.6362 10.0096 28.8777 10.2165C29.1192 10.4235 29.2399 10.7167 29.2399 11.079V12.7521C29.2399 13.0798 29.2744 13.3557 29.3607 13.5455V13.5972H28.7052V13.6145ZM27.6703 13.1315C27.86 13.1315 28.0498 13.0798 28.2222 12.9763C28.3947 12.8728 28.5327 12.7521 28.6017 12.5796V11.8379H28.1187C27.3598 11.8379 26.9803 12.0621 26.9803 12.5106C26.9803 12.7003 27.0493 12.8556 27.1701 12.9763C27.2908 13.0971 27.4633 13.1315 27.6703 13.1315Z" fill="#575757"/>
<path d="M30.7924 9.95783L30.8096 10.3545C31.0683 10.044 31.4306 9.88879 31.8962 9.88879C32.4137 9.88879 32.7587 10.0786 32.9312 10.4752C33.0519 10.3028 33.2071 10.1648 33.3969 10.044C33.5866 9.92331 33.8281 9.88879 34.0868 9.88879C34.8802 9.88879 35.2942 10.32 35.3114 11.1652V13.6145H34.6905V11.2169C34.6905 10.9582 34.6388 10.7685 34.5181 10.6305C34.3973 10.4925 34.2076 10.4408 33.9143 10.4408C33.6901 10.4408 33.4831 10.5098 33.3452 10.6477C33.2071 10.7857 33.1037 10.9755 33.0864 11.1997V13.6145H32.4655V11.2342C32.4655 10.6995 32.2067 10.4408 31.6893 10.4408C31.2753 10.4408 30.9994 10.6133 30.8441 10.9582V13.6145H30.2231V9.95783H30.7924Z" fill="#575757"/>
<path d="M39.3302 11.8207C39.3302 12.3726 39.2094 12.821 38.9507 13.166C38.692 13.511 38.347 13.6662 37.9158 13.6662C37.45 13.6662 37.1051 13.511 36.8464 13.1833L36.8118 13.5972H36.2427V8.42267H36.8636V10.3545C37.1223 10.044 37.4673 9.88877 37.8985 9.88877C38.3297 9.88877 38.692 10.0613 38.9334 10.389C39.1749 10.7167 39.3129 11.1825 39.3129 11.7689V11.8207H39.3302ZM38.7092 11.7516C38.7092 11.3204 38.6229 10.9927 38.4677 10.7685C38.3125 10.5443 38.071 10.4235 37.7605 10.4235C37.3465 10.4235 37.0533 10.6132 36.8809 10.9927V12.5623C37.0706 12.9418 37.3638 13.1315 37.7778 13.1315C38.071 13.1315 38.3125 13.0108 38.4677 12.7866C38.6229 12.5623 38.7092 12.2173 38.7092 11.7516Z" fill="#575757"/>
<path d="M40.7967 13.6144H40.1758V8.43988H40.7967V13.6144Z" fill="#575757"/>
<path d="M41.7964 8.99193C41.7964 8.88844 41.8309 8.80217 41.8827 8.7332C41.9344 8.66422 42.0379 8.6297 42.1586 8.6297C42.2794 8.6297 42.3656 8.66422 42.4346 8.7332C42.5036 8.80217 42.5209 8.88844 42.5209 8.99193C42.5209 9.09543 42.4863 9.18163 42.4346 9.25067C42.3828 9.31965 42.2794 9.35417 42.1586 9.35417C42.0379 9.35417 41.9516 9.31965 41.8827 9.25067C41.8137 9.18163 41.7964 9.09543 41.7964 8.99193ZM42.4691 13.6146H41.8481V9.95785H42.4691V13.6146Z" fill="#575757"/>
<path d="M44.0567 9.95781L44.0739 10.4235C44.3499 10.0785 44.7121 9.90607 45.1606 9.90607C45.9367 9.90607 46.3162 10.3373 46.3335 11.2169V13.6318H45.7125V11.2169C45.7125 10.9582 45.6435 10.7685 45.5401 10.6305C45.4366 10.4925 45.2468 10.4408 44.9881 10.4408C44.7811 10.4408 44.6086 10.4925 44.4534 10.596C44.2981 10.6995 44.1774 10.8375 44.0912 11.0272V13.6318H43.4702V9.95781H44.0567Z" fill="#575757"/>
<path d="M47.127 11.7516C47.127 11.1825 47.265 10.734 47.5237 10.389C47.7824 10.044 48.1274 9.88879 48.5759 9.88879C49.0243 9.88879 49.3693 10.044 49.6108 10.3545L49.6453 9.95783H50.2145V13.511C50.2145 13.9767 50.0765 14.3562 49.8005 14.6322C49.5245 14.9081 49.1451 15.0461 48.6793 15.0461C48.4206 15.0461 48.1619 14.9944 47.9032 14.8737C47.6444 14.7529 47.4547 14.6149 47.3339 14.4079L47.6617 14.0285C47.9204 14.3562 48.2481 14.5287 48.6449 14.5287C48.9553 14.5287 49.1796 14.4425 49.352 14.2699C49.5245 14.0975 49.6108 13.856 49.6108 13.5455V13.2523C49.3693 13.5455 49.0243 13.6835 48.5931 13.6835C48.1619 13.6835 47.8169 13.511 47.5582 13.1661C47.2995 12.8211 47.127 12.3554 47.127 11.7516ZM47.7652 11.8206C47.7652 12.2346 47.8514 12.5623 48.0239 12.7866C48.1964 13.0108 48.4206 13.1315 48.7311 13.1315C49.1278 13.1315 49.421 12.9591 49.5936 12.5968V10.941C49.4038 10.596 49.1106 10.4235 48.7311 10.4235C48.4206 10.4235 48.1964 10.5443 48.0239 10.7857C47.8514 11.0272 47.7652 11.3722 47.7652 11.8206Z" fill="#575757"/>
</g>
</g>
<defs>
<clipPath id="clip0_84_268">
<rect width="58.6893" height="16.4078" fill="white"/>
</clipPath>
</defs>
</svg>
