<svg width="14" height="13" viewBox="0 0 14 13" fill="none" xmlns="http://www.w3.org/2000/svg">
<path d="M9.83922 11.1415H4.05144M12.1543 3.18329V4.24438C12.1552 4.78844 11.928 5.312 11.5198 5.70694C11.1116 6.10187 10.5535 6.338 9.96077 6.36657C10.0126 6.19312 10.0455 6.01541 10.0592 5.83602L10.2849 3.18329H12.1543ZM3.81993 5.72461L3.60578 3.18329H1.73633V4.24438C1.73579 4.79194 1.96615 5.31849 2.37926 5.71398C2.79237 6.10948 3.35626 6.3433 3.95305 6.36657C3.88221 6.15791 3.83755 5.94253 3.81993 5.72461V5.72461ZM8.16077 8.26062C7.67019 8.45241 7.13409 8.52549 6.60385 8.47284C6.30418 8.44396 6.01126 8.37236 5.73569 8.26062L5.209 11.1415H8.68167L8.16077 8.26062ZM4.09774 1.59165H9.79292C9.87299 1.59141 9.95223 1.60641 10.0257 1.63568C10.0991 1.66496 10.1651 1.70788 10.2195 1.76173C10.2739 1.81559 10.3155 1.8792 10.3417 1.94855C10.3679 2.0179 10.3781 2.09148 10.3717 2.16464L10.0592 5.83602C10.0306 6.22245 9.91683 6.59955 9.72477 6.94455C9.53271 7.28954 9.26634 7.59525 8.94175 7.8432C8.61715 8.09115 8.24108 8.2762 7.83627 8.38716C7.43145 8.49811 7.00629 8.53268 6.58649 8.48875C5.84715 8.39372 5.16686 8.066 4.66215 7.56172C4.15743 7.05744 3.85969 6.40799 3.81993 5.72461L3.51897 2.16464C3.51256 2.09148 3.52278 2.0179 3.54899 1.94855C3.57519 1.8792 3.61681 1.81559 3.6712 1.76173C3.7256 1.70788 3.79159 1.66496 3.86501 1.63568C3.93843 1.60641 4.01768 1.59141 4.09774 1.59165V1.59165Z" stroke="#05041E" stroke-width="0.7" stroke-linecap="round" stroke-linejoin="round"/>
</svg>
