<svg width="148" height="187" viewBox="0 0 148 187" fill="none" xmlns="http://www.w3.org/2000/svg">
<g opacity="0.1">
<path d="M187 95C187 115.252 180.317 134.939 167.989 151.006C155.66 167.073 138.374 178.623 118.811 183.865C99.2491 189.107 78.5039 187.747 59.7931 179.997C41.0824 172.247 25.4518 158.539 15.3257 141L31.2605 131.8C39.3615 145.831 51.8659 156.797 66.8345 162.998C81.8031 169.198 98.3993 170.285 114.049 166.092C129.699 161.899 143.528 152.659 153.391 139.805C163.254 126.951 168.6 111.202 168.6 95H187Z" fill="#1ED6FF"/>
<path d="M11.105 138.059C2.93462 122.14 -0.538048 104.225 1.09259 86.4063C2.72322 68.5875 9.38985 51.6003 20.3139 37.4287C31.238 23.2571 45.9686 12.486 62.7854 6.37328C79.6022 0.260564 97.811 -0.941436 115.285 2.90766L111.228 21.3261C97.2489 18.2469 82.6818 19.2085 69.2283 24.0986C55.7749 28.9888 43.9904 37.6057 35.2512 48.943C26.5119 60.2803 21.1786 73.87 19.8741 88.1251C18.5696 102.38 21.3477 116.712 27.8841 129.447L11.105 138.059Z" fill="#3DFFDC"/>
<path d="M118.811 6.13482C138.697 11.4631 156.22 23.3071 168.579 39.7719C180.937 56.2367 187.416 76.3708 186.979 96.9531L168.583 96.5625C168.933 80.0967 163.75 63.9894 153.863 50.8175C143.976 37.6457 129.957 28.1705 114.049 23.9079L118.811 6.13482Z" fill="#5A3FFF"/>
</g>
</svg>
