<svg width="166" height="126" viewBox="0 0 166 126" fill="none" xmlns="http://www.w3.org/2000/svg">
<path opacity="0.4" d="M22.8418 57.8833L5.91602 86.2501V125.068H159.206V71.3202L141.642 90.3558L124.716 80.2781L107.79 111.631L90.8644 105.099L73.9386 77.2921L56.6934 81.7711L39.7676 90.729L22.8418 57.8833Z" fill="url(#paint0_linear_84_558)"/>
<path d="M5.91602 86.2501L22.8418 57.8833L39.7676 90.729L56.6934 81.7711L73.9386 77.2922L90.8644 105.099L107.79 111.631L124.716 80.2781L141.642 90.3558L159.206 71.3202" stroke="#36F097"/>
<path opacity="0.4" fill-rule="evenodd" clip-rule="evenodd" d="M5.91602 69.8272L22.8418 41.4604L39.7676 44.4464L56.6934 68.3342L73.9386 57.8833L90.8644 70.7603L107.79 59.3763L124.716 69.8272L141.642 50.0451L159.206 54.8973V71.3203L141.642 90.3559L124.716 80.2782L107.79 111.631L90.8644 105.099L73.9386 77.2922L56.6934 81.7712L39.7676 90.7291L22.8418 57.8834L5.91602 86.2501V69.8272Z" fill="url(#paint1_linear_84_558)"/>
<path d="M5.91602 69.8272L22.8418 41.4604L39.7676 44.4464L56.6934 68.3342L73.9386 57.8833L90.8644 70.7604L107.79 59.3763L124.716 69.8272L141.642 50.0451L158.887 54.8973" stroke="#1ED6FF"/>
<path opacity="0.4" fill-rule="evenodd" clip-rule="evenodd" d="M5.91602 21.7574L22.8418 8.32054L39.7676 5.33456L56.6934 20.2644L73.9386 27.7294L90.8644 14.8524L107.79 32.2084L124.716 15.7855L141.642 19.8912L159.206 9.81353V54.8634L141.787 50.3392L123.981 69.7933L107.335 59.3876L90.3031 70.6981L74.0451 58.0304L56.6257 67.9836L39.5934 44.0053L22.5612 40.8384L6.17221 69.3476L5.91602 69.3408V21.7574Z" fill="url(#paint2_linear_84_558)"/>
<path d="M5.91602 21.7574L22.8418 8.32054L39.7676 5.33456L56.6934 20.2644L73.9386 27.7294L90.8644 14.8524L107.79 32.2084L124.716 15.7855L141.642 19.8912L159.206 9.81353" stroke="#268AFF"/>
<circle opacity="0.2" cx="6" cy="86.0106" r="6" fill="#36F097"/>
<circle cx="6" cy="86.0106" r="3" fill="#36F097"/>
<circle opacity="0.2" cx="22.9253" cy="57.6438" r="6" fill="#36F097"/>
<circle cx="22.9253" cy="57.6438" r="3" fill="#36F097"/>
<circle opacity="0.2" cx="39.8516" cy="90.4895" r="6" fill="#36F097"/>
<circle cx="39.8516" cy="90.4895" r="3" fill="#36F097"/>
<circle opacity="0.2" cx="56.7773" cy="81.5316" r="6" fill="#36F097"/>
<circle cx="56.7773" cy="81.5316" r="3" fill="#36F097"/>
<circle opacity="0.2" cx="74.0225" cy="77.0527" r="6" fill="#36F097"/>
<circle cx="74.0225" cy="77.0527" r="3" fill="#36F097"/>
<circle opacity="0.2" cx="90.9482" cy="105.046" r="6" fill="#36F097"/>
<circle cx="90.9482" cy="105.046" r="3" fill="#36F097"/>
<circle opacity="0.2" cx="107.874" cy="111.391" r="6" fill="#36F097"/>
<circle cx="107.874" cy="111.391" r="3" fill="#36F097"/>
<circle opacity="0.2" cx="124.8" cy="80.4119" r="6" fill="#36F097"/>
<circle cx="124.8" cy="80.4119" r="3" fill="#36F097"/>
<circle opacity="0.2" cx="141.726" cy="90.1163" r="6" fill="#36F097"/>
<circle cx="141.726" cy="90.1163" r="3" fill="#36F097"/>
<circle opacity="0.2" cx="159.29" cy="71.0807" r="6" fill="#36F097"/>
<circle cx="159.29" cy="71.0807" r="3" fill="#36F097"/>
<circle opacity="0.2" cx="6" cy="69.961" r="6" fill="#1ED6FF"/>
<circle cx="6" cy="69.961" r="3" fill="#1ED6FF"/>
<circle opacity="0.2" cx="22.9253" cy="41.2209" r="6" fill="#1ED6FF"/>
<circle cx="22.9253" cy="41.2209" r="3" fill="#1ED6FF"/>
<circle opacity="0.2" cx="39.8516" cy="44.2069" r="6" fill="#1ED6FF"/>
<circle cx="39.8516" cy="44.2069" r="3" fill="#1ED6FF"/>
<circle opacity="0.2" cx="56.7773" cy="67.7215" r="6" fill="#1ED6FF"/>
<circle cx="56.7773" cy="67.7215" r="3" fill="#1ED6FF"/>
<circle opacity="0.2" cx="74.0225" cy="57.6438" r="6" fill="#1ED6FF"/>
<circle cx="74.0225" cy="57.6438" r="3" fill="#1ED6FF"/>
<circle opacity="0.2" cx="90.9482" cy="70.7075" r="6" fill="#1ED6FF"/>
<circle cx="90.9482" cy="70.7075" r="3" fill="#1ED6FF"/>
<circle opacity="0.2" cx="107.874" cy="59.1368" r="6" fill="#1ED6FF"/>
<circle cx="107.874" cy="59.1368" r="3" fill="#1ED6FF"/>
<circle opacity="0.2" cx="124.8" cy="69.5877" r="6" fill="#1ED6FF"/>
<circle cx="124.8" cy="69.5877" r="3" fill="#1ED6FF"/>
<circle opacity="0.2" cx="141.726" cy="49.8056" r="6" fill="#1ED6FF"/>
<circle cx="141.726" cy="49.8056" r="3" fill="#1ED6FF"/>
<circle opacity="0.2" cx="159.29" cy="54.6578" r="6" fill="#1ED6FF"/>
<circle cx="159.29" cy="54.6578" r="3" fill="#1ED6FF"/>
<circle opacity="0.2" cx="6" cy="22.0496" r="6" fill="#268AFF"/>
<circle cx="6" cy="22.0496" r="3" fill="#268AFF"/>
<circle opacity="0.2" cx="22.9253" cy="8.98591" r="6" fill="#268AFF"/>
<circle cx="22.9253" cy="8.98591" r="3" fill="#268AFF"/>
<circle opacity="0.2" cx="39.8516" cy="5.99998" r="6" fill="#268AFF"/>
<circle cx="39.8516" cy="5.99998" r="3" fill="#268AFF"/>
<circle opacity="0.2" cx="56.7773" cy="20.9299" r="6" fill="#268AFF"/>
<circle cx="56.7773" cy="20.9299" r="3" fill="#268AFF"/>
<circle opacity="0.2" cx="74.0225" cy="28.3947" r="6" fill="#268AFF"/>
<circle cx="74.0225" cy="28.3947" r="3" fill="#268AFF"/>
<circle opacity="0.2" cx="90.9482" cy="15.7044" r="6" fill="#268AFF"/>
<circle cx="90.9482" cy="15.7044" r="3" fill="#268AFF"/>
<circle opacity="0.2" cx="107.874" cy="32.8738" r="6" fill="#268AFF"/>
<circle cx="107.874" cy="32.8738" r="3" fill="#268AFF"/>
<circle opacity="0.2" cx="124.8" cy="16.4509" r="6" fill="#268AFF"/>
<circle cx="124.8" cy="16.4509" r="3" fill="#268AFF"/>
<circle opacity="0.2" cx="141.726" cy="20.5566" r="6" fill="#268AFF"/>
<circle cx="141.726" cy="20.5566" r="3" fill="#268AFF"/>
<circle opacity="0.2" cx="159.29" cy="10.4789" r="6" fill="#268AFF"/>
<circle cx="159.29" cy="10.4789" r="3" fill="#268AFF"/>
<defs>
<linearGradient id="paint0_linear_84_558" x1="82.5612" y1="57.8833" x2="82.5612" y2="125.068" gradientUnits="userSpaceOnUse">
<stop stop-color="#36F097"/>
<stop offset="1" stop-color="#36F097" stop-opacity="0.2"/>
</linearGradient>
<linearGradient id="paint1_linear_84_558" x1="82.5612" y1="41.4604" x2="82.5612" y2="111.631" gradientUnits="userSpaceOnUse">
<stop stop-color="#1ED6FF"/>
<stop offset="1" stop-color="#1ED6FF" stop-opacity="0.2"/>
</linearGradient>
<linearGradient id="paint2_linear_84_558" x1="82.5612" y1="5.33456" x2="82.5612" y2="70.6981" gradientUnits="userSpaceOnUse">
<stop stop-color="#268AFF"/>
<stop offset="1" stop-color="#268AFF" stop-opacity="0.2"/>
</linearGradient>
</defs>
</svg>
