<svg xmlns="http://www.w3.org/2000/svg" xmlns:xlink="http://www.w3.org/1999/xlink">
  
  <symbol id="logo" viewBox="0 0 49 19" xmlns="http://www.w3.org/2000/svg">
    <path d="M5.50394 11.288C6.32527 11.4587 6.73594 11.9227 6.73594 12.68V15.256C6.73594 15.832 6.5706 16.2693 6.23994 16.568C5.90927 16.856 5.4346 17 4.81594 17H1.13594V5.88H4.67194C5.90927 5.88 6.52794 6.46667 6.52794 7.64V9.912C6.52794 10.2533 6.43727 10.5147 6.25594 10.696C6.08527 10.8773 5.8346 11.0053 5.50394 11.08V11.288ZM4.67194 7.464H2.99194V10.456H4.67194V7.464ZM2.99194 15.416H4.83194V12.024H2.99194V15.416ZM12.5527 7.576H9.96069V10.52H12.1047L11.7847 12.152H9.96069V15.304H12.6807L12.3607 17H8.10469V5.88H12.2327L12.5527 7.576ZM18.2063 5.88L18.5263 7.624H16.7343V17H14.8783V7.624H13.0863L13.4063 5.88H18.2063ZM23.6751 5.88L23.9951 7.624H22.2031V17H20.3471V7.624H18.5551L18.8751 5.88H23.6751ZM29.9438 5.88V12.168C29.9438 13.2987 29.3678 13.8907 28.2158 13.944V17H26.3598V13.944C25.1865 13.912 24.5998 13.32 24.5998 12.168V5.88H26.4558V12.328H28.0878V5.88H29.9438ZM37.5771 5.8C38.1851 5.8 38.6437 5.95467 38.9531 6.264C39.2731 6.57333 39.4331 7.02133 39.4331 7.608V17H37.5771V13.896H35.9291V17H34.0731V7.56C34.0731 6.38667 34.6917 5.8 35.9291 5.8H37.5771ZM35.9291 12.328H37.5771V7.4H35.9291V12.328ZM42.8669 17H41.0109V5.88H42.8669V17Z"/>
    <path d="M46.506 3.776C46.91 3.776 47.27 3.868 47.586 4.052C47.902 4.232 48.146 4.484 48.318 4.808C48.494 5.128 48.582 5.494 48.582 5.906C48.582 6.318 48.494 6.686 48.318 7.01C48.146 7.33 47.902 7.582 47.586 7.766C47.27 7.946 46.91 8.036 46.506 8.036C46.098 8.036 45.736 7.946 45.42 7.766C45.104 7.582 44.858 7.33 44.682 7.01C44.506 6.686 44.418 6.318 44.418 5.906C44.418 5.494 44.506 5.128 44.682 4.808C44.858 4.484 45.104 4.232 45.42 4.052C45.736 3.868 46.098 3.776 46.506 3.776ZM46.506 4.016C46.134 4.016 45.81 4.096 45.534 4.256C45.258 4.412 45.046 4.632 44.898 4.916C44.75 5.2 44.676 5.53 44.676 5.906C44.676 6.278 44.75 6.608 44.898 6.896C45.046 7.18 45.258 7.402 45.534 7.562C45.81 7.722 46.134 7.802 46.506 7.802C46.874 7.802 47.194 7.722 47.466 7.562C47.742 7.402 47.954 7.18 48.102 6.896C48.25 6.608 48.324 6.278 48.324 5.906C48.324 5.53 48.25 5.2 48.102 4.916C47.954 4.632 47.742 4.412 47.466 4.256C47.194 4.096 46.874 4.016 46.506 4.016ZM46.494 4.514C46.254 4.514 46.034 4.57 45.834 4.682C45.638 4.794 45.482 4.956 45.366 5.168C45.25 5.376 45.192 5.62 45.192 5.9C45.192 6.18 45.25 6.426 45.366 6.638C45.482 6.846 45.638 7.008 45.834 7.124C46.034 7.236 46.254 7.292 46.494 7.292C46.794 7.292 47.054 7.212 47.274 7.052C47.494 6.888 47.644 6.67 47.724 6.398H47.22C47.1 6.73 46.858 6.896 46.494 6.896C46.254 6.896 46.058 6.81 45.906 6.638C45.754 6.466 45.678 6.222 45.678 5.906C45.678 5.586 45.754 5.34 45.906 5.168C46.058 4.996 46.254 4.91 46.494 4.91C46.67 4.91 46.822 4.954 46.95 5.042C47.078 5.126 47.168 5.248 47.22 5.408H47.724C47.648 5.124 47.5 4.904 47.28 4.748C47.06 4.592 46.798 4.514 46.494 4.514Z"/>
  </symbol>

  <symbol id="kybok"  viewBox="0 0 14 13" fill="none" xmlns="http://www.w3.org/2000/svg">
    <path d="M9.83922 11.1415H4.05144M12.1543 3.18329V4.24438C12.1552 4.78844 11.928 5.312 11.5198 5.70694C11.1116 6.10187 10.5535 6.338 9.96077 6.36657C10.0126 6.19312 10.0455 6.01541 10.0592 5.83602L10.2849 3.18329H12.1543ZM3.81993 5.72461L3.60578 3.18329H1.73633V4.24438C1.73579 4.79194 1.96615 5.31849 2.37926 5.71398C2.79237 6.10948 3.35626 6.3433 3.95305 6.36657C3.88221 6.15791 3.83755 5.94253 3.81993 5.72461V5.72461ZM8.16077 8.26062C7.67019 8.45241 7.13409 8.52549 6.60385 8.47284C6.30418 8.44396 6.01126 8.37236 5.73569 8.26062L5.209 11.1415H8.68167L8.16077 8.26062ZM4.09774 1.59165H9.79292C9.87299 1.59141 9.95223 1.60641 10.0257 1.63568C10.0991 1.66496 10.1651 1.70788 10.2195 1.76173C10.2739 1.81559 10.3155 1.8792 10.3417 1.94855C10.3679 2.0179 10.3781 2.09148 10.3717 2.16464L10.0592 5.83602C10.0306 6.22245 9.91683 6.59955 9.72477 6.94455C9.53271 7.28954 9.26634 7.59525 8.94175 7.8432C8.61715 8.09115 8.24108 8.2762 7.83627 8.38716C7.43145 8.49811 7.00629 8.53268 6.58649 8.48875C5.84715 8.39372 5.16686 8.066 4.66215 7.56172C4.15743 7.05744 3.85969 6.40799 3.81993 5.72461L3.51897 2.16464C3.51256 2.09148 3.52278 2.0179 3.54899 1.94855C3.57519 1.8792 3.61681 1.81559 3.6712 1.76173C3.7256 1.70788 3.79159 1.66496 3.86501 1.63568C3.93843 1.60641 4.01768 1.59141 4.09774 1.59165V1.59165Z" stroke="#05041E" stroke-width="0.7" stroke-linecap="round" stroke-linejoin="round"/>
  </symbol>

  <symbol id="graph" viewBox="0 0 166 126" fill="none" xmlns="http://www.w3.org/2000/svg">
    <path opacity="0.4" d="M22.8418 57.8833L5.91602 86.2501V125.068H159.206V71.3202L141.642 90.3558L124.716 80.2781L107.79 111.631L90.8644 105.099L73.9386 77.2921L56.6934 81.7711L39.7676 90.729L22.8418 57.8833Z" fill="url(#paint0_linear_84_558)"/>
    <path d="M5.91602 86.2501L22.8418 57.8833L39.7676 90.729L56.6934 81.7711L73.9386 77.2922L90.8644 105.099L107.79 111.631L124.716 80.2781L141.642 90.3558L159.206 71.3202" stroke="#36F097"/>
    <path opacity="0.4" fill-rule="evenodd" clip-rule="evenodd" d="M5.91602 69.8272L22.8418 41.4604L39.7676 44.4464L56.6934 68.3342L73.9386 57.8833L90.8644 70.7603L107.79 59.3763L124.716 69.8272L141.642 50.0451L159.206 54.8973V71.3203L141.642 90.3559L124.716 80.2782L107.79 111.631L90.8644 105.099L73.9386 77.2922L56.6934 81.7712L39.7676 90.7291L22.8418 57.8834L5.91602 86.2501V69.8272Z" fill="url(#paint1_linear_84_558)"/>
    <path d="M5.91602 69.8272L22.8418 41.4604L39.7676 44.4464L56.6934 68.3342L73.9386 57.8833L90.8644 70.7604L107.79 59.3763L124.716 69.8272L141.642 50.0451L158.887 54.8973" stroke="#1ED6FF"/>
    <path opacity="0.4" fill-rule="evenodd" clip-rule="evenodd" d="M5.91602 21.7574L22.8418 8.32054L39.7676 5.33456L56.6934 20.2644L73.9386 27.7294L90.8644 14.8524L107.79 32.2084L124.716 15.7855L141.642 19.8912L159.206 9.81353V54.8634L141.787 50.3392L123.981 69.7933L107.335 59.3876L90.3031 70.6981L74.0451 58.0304L56.6257 67.9836L39.5934 44.0053L22.5612 40.8384L6.17221 69.3476L5.91602 69.3408V21.7574Z" fill="url(#paint2_linear_84_558)"/>
    <path d="M5.91602 21.7574L22.8418 8.32054L39.7676 5.33456L56.6934 20.2644L73.9386 27.7294L90.8644 14.8524L107.79 32.2084L124.716 15.7855L141.642 19.8912L159.206 9.81353" stroke="#268AFF"/>
    <circle class="qeq" opacity="0.2" cx="6" cy="86.0106" r="6" fill="#36F097"/>
    <circle cx="6" cy="86.0106" r="3" fill="#36F097"/>
    <circle opacity="0.2" cx="22.9253" cy="57.6438" r="6" fill="#36F097"/>
    <circle cx="22.9253" cy="57.6438" r="3" fill="#36F097"/>
    <circle opacity="0.2" cx="39.8516" cy="90.4895" r="6" fill="#36F097"/>
    <circle cx="39.8516" cy="90.4895" r="3" fill="#36F097"/>
    <circle opacity="0.2" cx="56.7773" cy="81.5316" r="6" fill="#36F097"/>
    <circle cx="56.7773" cy="81.5316" r="3" fill="#36F097"/>
    <circle opacity="0.2" cx="74.0225" cy="77.0527" r="6" fill="#36F097"/>
    <circle cx="74.0225" cy="77.0527" r="3" fill="#36F097"/>
    <circle opacity="0.2" cx="90.9482" cy="105.046" r="6" fill="#36F097"/>
    <circle cx="90.9482" cy="105.046" r="3" fill="#36F097"/>
    <circle opacity="0.2" cx="107.874" cy="111.391" r="6" fill="#36F097"/>
    <circle cx="107.874" cy="111.391" r="3" fill="#36F097"/>
    <circle opacity="0.2" cx="124.8" cy="80.4119" r="6" fill="#36F097"/>
    <circle cx="124.8" cy="80.4119" r="3" fill="#36F097"/>
    <circle opacity="0.2" cx="141.726" cy="90.1163" r="6" fill="#36F097"/>
    <circle cx="141.726" cy="90.1163" r="3" fill="#36F097"/>
    <circle opacity="0.2" cx="159.29" cy="71.0807" r="6" fill="#36F097"/>
    <circle cx="159.29" cy="71.0807" r="3" fill="#36F097"/>
    <circle opacity="0.2" cx="6" cy="69.961" r="6" fill="#1ED6FF"/>
    <circle cx="6" cy="69.961" r="3" fill="#1ED6FF"/>
    <circle opacity="0.2" cx="22.9253" cy="41.2209" r="6" fill="#1ED6FF"/>
    <circle cx="22.9253" cy="41.2209" r="3" fill="#1ED6FF"/>
    <circle opacity="0.2" cx="39.8516" cy="44.2069" r="6" fill="#1ED6FF"/>
    <circle cx="39.8516" cy="44.2069" r="3" fill="#1ED6FF"/>
    <circle opacity="0.2" cx="56.7773" cy="67.7215" r="6" fill="#1ED6FF"/>
    <circle cx="56.7773" cy="67.7215" r="3" fill="#1ED6FF"/>
    <circle opacity="0.2" cx="74.0225" cy="57.6438" r="6" fill="#1ED6FF"/>
    <circle cx="74.0225" cy="57.6438" r="3" fill="#1ED6FF"/>
    <circle opacity="0.2" cx="90.9482" cy="70.7075" r="6" fill="#1ED6FF"/>
    <circle cx="90.9482" cy="70.7075" r="3" fill="#1ED6FF"/>
    <circle opacity="0.2" cx="107.874" cy="59.1368" r="6" fill="#1ED6FF"/>
    <circle cx="107.874" cy="59.1368" r="3" fill="#1ED6FF"/>
    <circle opacity="0.2" cx="124.8" cy="69.5877" r="6" fill="#1ED6FF"/>
    <circle cx="124.8" cy="69.5877" r="3" fill="#1ED6FF"/>
    <circle opacity="0.2" cx="141.726" cy="49.8056" r="6" fill="#1ED6FF"/>
    <circle cx="141.726" cy="49.8056" r="3" fill="#1ED6FF"/>
    <circle opacity="0.2" cx="159.29" cy="54.6578" r="6" fill="#1ED6FF"/>
    <circle cx="159.29" cy="54.6578" r="3" fill="#1ED6FF"/>
    <circle opacity="0.2" cx="6" cy="22.0496" r="6" fill="#268AFF"/>
    <circle cx="6" cy="22.0496" r="3" fill="#268AFF"/>
    <circle opacity="0.2" cx="22.9253" cy="8.98591" r="6" fill="#268AFF"/>
    <circle cx="22.9253" cy="8.98591" r="3" fill="#268AFF"/>
    <circle opacity="0.2" cx="39.8516" cy="5.99998" r="6" fill="#268AFF"/>
    <circle cx="39.8516" cy="5.99998" r="3" fill="#268AFF"/>
    <circle opacity="0.2" cx="56.7773" cy="20.9299" r="6" fill="#268AFF"/>
    <circle cx="56.7773" cy="20.9299" r="3" fill="#268AFF"/>
    <circle opacity="0.2" cx="74.0225" cy="28.3947" r="6" fill="#268AFF"/>
    <circle cx="74.0225" cy="28.3947" r="3" fill="#268AFF"/>
    <circle opacity="0.2" cx="90.9482" cy="15.7044" r="6" fill="#268AFF"/>
    <circle cx="90.9482" cy="15.7044" r="3" fill="#268AFF"/>
    <circle opacity="0.2" cx="107.874" cy="32.8738" r="6" fill="#268AFF"/>
    <circle cx="107.874" cy="32.8738" r="3" fill="#268AFF"/>
    <circle opacity="0.2" cx="124.8" cy="16.4509" r="6" fill="#268AFF"/>
    <circle cx="124.8" cy="16.4509" r="3" fill="#268AFF"/>
    <circle opacity="0.2" cx="141.726" cy="20.5566" r="6" fill="#268AFF"/>
    <circle cx="141.726" cy="20.5566" r="3" fill="#268AFF"/>
    <circle opacity="0.2" cx="159.29" cy="10.4789" r="6" fill="#268AFF"/>
    <circle cx="159.29" cy="10.4789" r="3" fill="#268AFF"/>
    <defs>
    <linearGradient id="paint0_linear_84_558" x1="82.5612" y1="57.8833" x2="82.5612" y2="125.068" gradientUnits="userSpaceOnUse">
    <stop stop-color="#36F097"/>
    <stop offset="1" stop-color="#36F097" stop-opacity="0.2"/>
    </linearGradient>
    <linearGradient id="paint1_linear_84_558" x1="82.5612" y1="41.4604" x2="82.5612" y2="111.631" gradientUnits="userSpaceOnUse">
    <stop stop-color="#1ED6FF"/>
    <stop offset="1" stop-color="#1ED6FF" stop-opacity="0.2"/>
    </linearGradient>
    <linearGradient id="paint2_linear_84_558" x1="82.5612" y1="5.33456" x2="82.5612" y2="70.6981" gradientUnits="userSpaceOnUse">
    <stop stop-color="#268AFF"/>
    <stop offset="1" stop-color="#268AFF" stop-opacity="0.2"/>
    </linearGradient>
    </defs>
  </symbol>


</svg>
