<svg width="43" height="12" viewBox="0 0 43 12" fill="none" xmlns="http://www.w3.org/2000/svg">
<path d="M4.75394 5.73246C5.57527 5.90312 5.98594 6.36712 5.98594 7.12446V9.70046C5.98594 10.2765 5.8206 10.7138 5.48994 11.0125C5.15927 11.3005 4.6846 11.4445 4.06594 11.4445H0.385938V0.324457H3.92194C5.15927 0.324457 5.77794 0.911124 5.77794 2.08446V4.35646C5.77794 4.69779 5.68727 4.95912 5.50594 5.14046C5.33527 5.32179 5.0846 5.44979 4.75394 5.52446V5.73246ZM3.92194 1.90846H2.24194V4.90046H3.92194V1.90846ZM2.24194 9.86046H4.08194V6.46846H2.24194V9.86046ZM11.8027 2.02046H9.21069V4.96446H11.3547L11.0347 6.59646H9.21069V9.74846H11.9307L11.6107 11.4445H7.35469V0.324457H11.4827L11.8027 2.02046ZM17.4563 0.324457L17.7763 2.06846H15.9843V11.4445H14.1283V2.06846H12.3363L12.6563 0.324457H17.4563ZM22.9251 0.324457L23.2451 2.06846H21.4531V11.4445H19.5971V2.06846H17.8051L18.1251 0.324457H22.9251ZM29.1938 0.324457V6.61246C29.1938 7.74312 28.6178 8.33512 27.4658 8.38846V11.4445H25.6098V8.38846C24.4365 8.35646 23.8498 7.76446 23.8498 6.61246V0.324457H25.7058V6.77246H27.3378V0.324457H29.1938ZM36.8271 0.244457C37.4351 0.244457 37.8937 0.399124 38.2031 0.708458C38.5231 1.01779 38.6831 1.46579 38.6831 2.05246V11.4445H36.8271V8.34046H35.1791V11.4445H33.3231V2.00446C33.3231 0.831124 33.9417 0.244457 35.1791 0.244457H36.8271ZM35.1791 6.77246H36.8271V1.84446H35.1791V6.77246ZM42.1169 11.4445H40.2609V0.324457H42.1169V11.4445Z" fill="#00E5F9"/>
</svg>
