<svg width="99" height="11" viewBox="0 0 99 11" fill="none" xmlns="http://www.w3.org/2000/svg">
<g clip-path="url(#clip0_84_254)">
<path d="M4.21839 0.774231C4.66031 0.774231 5.02189 0.774231 5.3232 0.794318C5.62451 0.814406 5.88565 0.834494 6.08652 0.874669C6.2874 0.914844 6.46819 0.955018 6.6088 1.01528C6.7494 1.07554 6.89 1.1559 7.01053 1.23624C7.27167 1.43712 7.47254 1.69826 7.6132 1.99957C7.75381 2.30089 7.83414 2.62228 7.83414 2.96377C7.83414 3.32535 7.75381 3.66683 7.6132 3.94806C7.47254 4.22929 7.2516 4.45025 6.9704 4.59086C6.86993 4.65113 6.76953 4.71139 6.649 4.75156C6.52846 4.79174 6.36773 4.852 6.16688 4.91226C6.46819 4.97253 6.68913 5.01271 6.84986 5.07297C6.99047 5.11314 7.15114 5.19349 7.2918 5.27384C7.57301 5.45463 7.81407 5.71577 7.97474 6.07734C8.13548 6.41883 8.23588 6.80048 8.23588 7.18215C8.23588 7.44328 8.19574 7.68435 8.11535 7.90529C8.03501 8.14636 7.93461 8.34722 7.79394 8.54809C7.65334 8.74896 7.49267 8.92976 7.31187 9.07037C7.13107 9.2311 6.91013 9.35163 6.68913 9.43197C6.5686 9.49223 6.40793 9.53237 6.24723 9.57257C6.08652 9.61277 5.88565 9.63284 5.66469 9.6529C5.44373 9.67303 5.1625 9.6931 4.86119 9.6931C4.55987 9.6931 4.19829 9.71317 3.77646 9.71317H0.0602617V8.20662H0.542363C0.682973 8.20662 0.74324 8.08609 0.74324 7.82495V2.64237C0.74324 2.4415 0.662886 2.34106 0.482101 2.34106H0V0.774231H4.21839ZM2.77208 4.32973H4.25856C4.76075 4.32973 5.14241 4.22929 5.42364 4.0485C5.70486 3.84762 5.84548 3.58649 5.84548 3.245C5.84548 2.62228 5.40355 2.30089 4.49961 2.30089H2.79217V4.32973H2.77208ZM2.77208 8.14636H4.66031C5.10224 8.14636 5.46381 8.02582 5.72495 7.80488C5.98609 7.58388 6.10661 7.26248 6.10661 6.88088C6.10661 6.49918 5.98609 6.21796 5.72495 6.01708C5.46381 5.81621 5.12232 5.71577 4.66031 5.71577H2.77208V8.14636Z" fill="#575757"/>
<path d="M10.988 6.96142C11.1086 7.46362 11.2894 7.84529 11.5103 8.0863C11.7514 8.32737 12.0728 8.4479 12.4745 8.4479C12.7558 8.4479 12.9968 8.38763 13.1776 8.24703C13.3584 8.1265 13.499 7.90556 13.6195 7.60423H15.6885C15.568 7.9859 15.4475 8.3073 15.3069 8.52823C15.1663 8.7693 14.9654 8.97017 14.7243 9.17104C14.1016 9.67324 13.3584 9.91431 12.4946 9.91431C11.9924 9.91431 11.5304 9.83391 11.1086 9.65318C10.6868 9.47238 10.3252 9.23131 10.0238 8.9099C9.72256 8.5885 9.48149 8.22696 9.30069 7.80509C9.11989 7.38329 9.03955 6.90115 9.03955 6.39897C9.03955 5.89678 9.11989 5.45486 9.28062 5.01293C9.44129 4.59109 9.68236 4.20943 9.96356 3.90812C10.2649 3.6068 10.6064 3.36575 11.0082 3.18496C11.4099 3.00418 11.8518 2.92383 12.3138 2.92383C12.7959 2.92383 13.2579 3.02426 13.6999 3.20505C14.1418 3.38584 14.5235 3.66707 14.8449 4.00855C15.1863 4.35004 15.4073 4.71162 15.5479 5.09328C15.6885 5.47495 15.7488 5.95704 15.7488 6.53958C15.7488 6.55967 15.7488 6.59985 15.7488 6.70028C15.7488 6.78062 15.7488 6.86102 15.7287 6.94135H10.988V6.96142ZM13.6195 5.65573C13.5793 5.2339 13.4588 4.91249 13.2379 4.69153C13.0169 4.47057 12.7357 4.35004 12.354 4.35004C11.9723 4.35004 11.651 4.47057 11.43 4.69153C11.1889 4.93258 11.0684 5.2339 11.0483 5.65573H13.6195Z" fill="#575757"/>
<path d="M23.8831 0.75439H24.546V3.42603H23.8228C23.6822 3.06446 23.5617 2.78323 23.4612 2.60245C23.3608 2.42166 23.2403 2.26096 23.0997 2.12034C22.8184 1.8592 22.477 1.63824 22.0552 1.47754C21.6333 1.31684 21.2115 1.23649 20.7695 1.23649C20.2673 1.23649 19.8053 1.33693 19.3835 1.51772C18.9617 1.6985 18.6202 1.97973 18.3189 2.32122C18.0175 2.66271 17.7966 3.08454 17.6359 3.56665C17.4752 4.04875 17.3948 4.59111 17.3948 5.19374C17.3948 5.91689 17.5153 6.57978 17.7363 7.18243C17.9573 7.78503 18.2787 8.26711 18.6804 8.60864C19.2629 9.09071 19.966 9.33178 20.7695 9.33178C21.2717 9.33178 21.7338 9.23131 22.1756 9.03045C22.5975 8.82958 22.9591 8.52824 23.2202 8.14664C23.3006 8.0261 23.3809 7.90557 23.4412 7.76497C23.5014 7.6243 23.5617 7.46363 23.6018 7.28283C23.642 7.10203 23.7023 6.90116 23.7224 6.68022C23.7626 6.45925 23.7826 6.19811 23.8228 5.91689H20.8298V5.27409H24.4857V9.85405H23.9835L23.8429 8.04617C23.642 8.36757 23.4814 8.60864 23.3608 8.74924C23.2403 8.88984 23.1198 9.03045 22.9992 9.15098C22.718 9.41212 22.3766 9.61298 21.9748 9.75359C21.573 9.89425 21.1512 9.95446 20.6891 9.95446C20.0865 9.95446 19.5241 9.83398 19.0219 9.61298C18.5197 9.39205 18.0979 9.07065 17.7363 8.66891C17.3747 8.26711 17.0935 7.76497 16.8926 7.20249C16.6918 6.61995 16.5913 5.99724 16.5913 5.29418C16.5913 4.57102 16.6918 3.92822 16.8926 3.34568C17.0935 2.76314 17.3747 2.28104 17.7363 1.8592C18.0979 1.45745 18.5398 1.13605 19.0621 0.915089C19.5843 0.694127 20.1468 0.593689 20.7896 0.593689C21.1311 0.593689 21.4324 0.613777 21.7136 0.67404C21.9949 0.734302 22.2359 0.814653 22.477 0.955266C22.718 1.07579 22.939 1.25658 23.16 1.47754C23.3809 1.6985 23.6018 1.95965 23.863 2.28104V0.75439H23.8831Z" fill="#575757"/>
<path d="M31.8399 9.7136H31.1167C30.8355 9.7136 30.6547 9.65333 30.5542 9.5328C30.4538 9.41227 30.3936 9.19133 30.3735 8.8498C30.2329 8.99046 30.1124 9.09086 30.032 9.1712C29.9516 9.2516 29.8713 9.3118 29.791 9.37207C29.3088 9.7136 28.7464 9.89434 28.0835 9.89434C27.7621 9.89434 27.4608 9.8542 27.1997 9.75374C26.9385 9.6734 26.6975 9.5328 26.5167 9.37207C26.3158 9.2114 26.1752 9.01053 26.0747 8.78953C25.9743 8.56859 25.9141 8.30746 25.9141 8.02625C25.9141 7.60438 26.0346 7.22271 26.2756 6.88124C26.5167 6.53975 26.8581 6.31878 27.28 6.19826C27.3603 6.17817 27.4809 6.138 27.6215 6.09782C27.7621 6.05765 27.9228 6.03756 28.0634 5.99739C28.2241 5.97729 28.3848 5.93712 28.5455 5.91703C28.7062 5.89695 28.8468 5.87686 28.9874 5.85677C29.1682 5.83669 29.3088 5.8166 29.4294 5.79651C29.5499 5.77642 29.6503 5.75633 29.7307 5.73625C29.811 5.71616 29.8914 5.69607 29.9516 5.6559C30.0119 5.61572 30.0722 5.59563 30.1324 5.53537C30.3132 5.39476 30.4136 5.17379 30.4136 4.91266C30.4136 4.45065 30.2931 4.12924 30.032 3.90828C29.7708 3.70741 29.3691 3.60697 28.8066 3.60697C28.0031 3.60697 27.4608 3.80784 27.1595 4.1895C27.0791 4.28995 27.0389 4.41047 26.9988 4.53099C26.9586 4.65152 26.9184 4.8524 26.8783 5.09345H26.135C26.1953 4.75196 26.2555 4.47073 26.3158 4.28995C26.3961 4.10916 26.4966 3.92837 26.6573 3.74758C27.0992 3.24539 27.8023 2.98425 28.7665 2.98425C29.2486 2.98425 29.6704 3.04451 30.032 3.16504C30.3936 3.28557 30.6547 3.46635 30.8154 3.70741C30.9158 3.84801 30.9761 4.00872 31.0364 4.1895C31.0766 4.37029 31.0966 4.63143 31.0966 4.93274V8.48826C31.0966 8.74939 31.1167 8.93019 31.1569 8.9904C31.197 9.05066 31.2975 9.09086 31.4582 9.09086H31.8198V9.7136H31.8399ZM30.4338 6.09782C30.3132 6.138 30.2329 6.17817 30.1726 6.19826C30.1124 6.21835 30.0521 6.23844 29.9918 6.25852C29.8914 6.2987 29.7708 6.31878 29.6302 6.35896C29.4896 6.37905 29.329 6.41923 29.1482 6.4594L27.9831 6.64019C27.5411 6.72054 27.1997 6.86117 26.9586 7.08211C26.7175 7.30305 26.6171 7.60438 26.6171 7.98605C26.6171 8.40786 26.7577 8.72926 27.0189 8.95026C27.28 9.19133 27.6617 9.29173 28.1237 9.29173C28.6259 9.29173 29.0678 9.1712 29.4696 8.93019C29.8512 8.68913 30.1324 8.34766 30.2931 7.92579C30.3735 7.74499 30.4136 7.54412 30.4338 7.34325C30.4538 7.14238 30.4739 6.84104 30.4739 6.4594V6.09782H30.4338Z" fill="#575757"/>
<path d="M32.6221 3.30531H34.0684V4.26951C34.1889 4.04855 34.3094 3.86776 34.43 3.72714C34.5504 3.58653 34.7112 3.46601 34.8518 3.36557C35.0124 3.28522 35.1732 3.20487 35.354 3.16469C35.5348 3.12452 35.7557 3.10443 35.9766 3.10443C36.2378 3.10443 36.4788 3.12452 36.6797 3.16469C36.8806 3.20487 37.0413 3.26513 37.202 3.36557C37.3627 3.46601 37.5033 3.58653 37.6239 3.74723C37.7444 3.90793 37.885 4.10881 38.0055 4.36995C38.1662 4.10881 38.3269 3.90793 38.4876 3.74723C38.6282 3.58653 38.7889 3.44592 38.9496 3.36557C39.1103 3.26513 39.2911 3.20487 39.4719 3.16469C39.6527 3.12452 39.8737 3.10443 40.1348 3.10443C40.7575 3.10443 41.2597 3.28522 41.6012 3.62671C41.9628 3.98829 42.1234 4.47038 42.1234 5.0931V8.74902C42.1234 8.92982 42.1436 9.05035 42.1837 9.09049C42.2239 9.13069 42.3042 9.17089 42.465 9.17089H42.8667V9.71323H40.6369V9.17089H41.0588C41.1994 9.17089 41.2999 9.13069 41.34 9.07042C41.3802 9.01015 41.4003 8.84948 41.4003 8.62848V5.2538C41.4003 4.75161 41.2798 4.36995 41.0387 4.10881C40.7977 3.84767 40.4361 3.72714 39.954 3.72714C39.3915 3.72714 38.9295 3.92802 38.5881 4.30968C38.2465 4.69135 38.0859 5.23371 38.0859 5.8966V8.76915C38.0859 8.94989 38.1059 9.07042 38.1461 9.11062C38.1863 9.15076 38.2867 9.17089 38.4475 9.17089H38.8291V9.71323H36.6797V9.17089H37.1417C37.3024 9.17089 37.3828 9.13069 37.3828 9.03028V5.75599C37.3828 5.37433 37.3627 5.05292 37.3225 4.7717C37.2824 4.51056 37.202 4.2896 37.1016 4.14898C37.0011 3.98828 36.8605 3.88785 36.6998 3.82758C36.5391 3.76732 36.3182 3.72714 36.057 3.72714C35.4343 3.72714 34.9522 3.90793 34.6107 4.26951C34.2692 4.63109 34.0884 5.13327 34.0884 5.75599V8.70888C34.0884 8.90975 34.1085 9.05035 34.1487 9.09049C34.1889 9.13069 34.2893 9.17089 34.45 9.17089H34.8317V9.71323H32.6421V9.17089H33.0238C33.1845 9.17089 33.305 9.15076 33.3251 9.09049C33.3653 9.03029 33.3853 8.88962 33.3853 8.64862V4.39004C33.3853 4.16907 33.3653 4.02846 33.3251 3.9682C33.2849 3.90793 33.1845 3.86776 33.0238 3.86776H32.6421V3.30531H32.6221Z" fill="#575757"/>
<path d="M43.4697 9.13102H43.8514C43.992 9.13102 44.0925 9.09082 44.1527 9.03061C44.213 8.97035 44.2331 8.84981 44.2331 8.66901V1.73881C44.2331 1.57811 44.213 1.45758 44.1527 1.4174C44.1125 1.37723 44.0121 1.33706 43.8514 1.33706H43.4697V0.754517H44.9161V4.37027C45.0968 4.10914 45.2776 3.90826 45.4383 3.74756C45.599 3.58686 45.7597 3.44624 45.9405 3.34581C46.1012 3.24537 46.3021 3.18511 46.4829 3.14493C46.6838 3.10476 46.9047 3.08467 47.1458 3.08467C47.5676 3.08467 47.9492 3.16502 48.2908 3.32572C48.6322 3.48642 48.9134 3.72747 49.1746 4.02878C49.4156 4.3301 49.5965 4.69168 49.7371 5.1336C49.8777 5.57552 49.9379 6.03754 49.9379 6.57991C49.9379 7.08207 49.8777 7.54413 49.7571 7.96594C49.6366 8.38781 49.4559 8.72928 49.2148 9.03061C48.9737 9.33189 48.6925 9.55289 48.3711 9.71356C48.0497 9.87429 47.668 9.95462 47.2663 9.95462C46.8646 9.95462 46.4829 9.87429 46.1414 9.73362C45.7999 9.59302 45.4986 9.37209 45.2575 9.09082C45.1772 9.01048 45.1169 8.95022 45.0767 8.86988C45.0365 8.78955 44.9562 8.68908 44.8759 8.54848V9.75376H43.5099V9.13102H43.4697ZM46.985 3.66721C46.3222 3.66721 45.7798 3.92835 45.3981 4.43053C45.0165 4.93272 44.8156 5.6157 44.8156 6.49955C44.8156 7.4236 45.0165 8.12667 45.3981 8.60875C45.7798 9.09082 46.3423 9.35202 47.0453 9.35202C47.7484 9.35202 48.2908 9.11095 48.6523 8.64894C49.034 8.18694 49.2148 7.50393 49.2148 6.59999C49.2148 5.55544 48.9737 4.79211 48.5117 4.3301C48.3108 4.12922 48.0698 3.96852 47.8086 3.86809C47.5475 3.72747 47.2663 3.66721 46.985 3.66721Z" fill="#575757"/>
<path d="M50.6821 0.754517H52.1285V8.66901C52.1285 8.84981 52.1485 8.97035 52.1887 9.03061C52.2289 9.09082 52.3092 9.13102 52.4097 9.13102H52.8717V9.71356H50.6821V9.13102H51.0437C51.2044 9.13102 51.3049 9.09082 51.345 9.03061C51.4053 8.97035 51.4254 8.84981 51.4254 8.66901V1.69863C51.4254 1.53793 51.4053 1.43749 51.3651 1.39732C51.3249 1.35714 51.2044 1.33706 51.0437 1.33706H50.6821V0.754517Z" fill="#575757"/>
<path d="M54.3972 6.6599C54.4373 7.02146 54.4575 7.30273 54.4976 7.48346C54.5378 7.66427 54.5579 7.80487 54.6181 7.9254C54.6784 8.12627 54.7789 8.32714 54.9195 8.48787C55.0601 8.64854 55.2208 8.80928 55.4015 8.92981C55.5823 9.05034 55.8033 9.15075 56.0042 9.21101C56.2051 9.27128 56.4462 9.31148 56.7073 9.31148C57.33 9.31148 57.8322 9.09048 58.1736 8.62847C58.2741 8.50794 58.3544 8.38741 58.4147 8.26687C58.475 8.1464 58.5553 7.9656 58.6356 7.7446H59.3588C59.2986 7.9254 59.2584 8.08613 59.1981 8.20667C59.1378 8.34727 59.0976 8.4678 59.0374 8.56821C58.9772 8.68874 58.9169 8.78921 58.8365 8.86954C58.7562 8.96994 58.6758 9.05034 58.5553 9.15075C58.2942 9.41188 58.013 9.59268 57.7116 9.71322C57.4103 9.83375 57.0688 9.89402 56.6872 9.89402C56.2452 9.89402 55.8234 9.81362 55.4618 9.65295C55.1003 9.49222 54.7989 9.27128 54.5378 8.99008C54.2767 8.70881 54.0758 8.34727 53.9553 7.94553C53.8147 7.54373 53.7544 7.08173 53.7544 6.55946C53.7544 6.0171 53.8147 5.535 53.9553 5.09307C54.0959 4.65115 54.2967 4.28957 54.5378 3.96817C54.7989 3.66686 55.1003 3.4258 55.4417 3.24502C55.8033 3.08431 56.185 3.00397 56.6269 3.00397C57.0488 3.00397 57.4304 3.08431 57.7719 3.22493C58.1134 3.38563 58.3946 3.60659 58.6356 3.88782C58.8767 4.18913 59.0575 4.53062 59.178 4.93237C59.2986 5.33412 59.3588 5.79613 59.3588 6.31841V6.55946H54.3972V6.6599ZM58.7361 6.07736C58.716 5.89657 58.6758 5.73587 58.6558 5.61535C58.6356 5.49482 58.6156 5.3743 58.5754 5.27386C58.5553 5.17342 58.5151 5.09307 58.495 5.01272C58.4549 4.93237 58.4147 4.85202 58.3745 4.75158C58.1937 4.41009 57.9326 4.14896 57.6313 3.96817C57.33 3.78738 56.9885 3.70703 56.6068 3.70703C56.2452 3.70703 55.9037 3.78738 55.5823 3.96817C55.281 4.12887 55.0199 4.36992 54.8391 4.67124C54.7387 4.83194 54.6583 4.99263 54.6181 5.19351C54.5579 5.39438 54.4976 5.67561 54.4373 6.05728H58.7361V6.07736Z" fill="#575757"/>
<path d="M60.082 8.14674H60.544C60.6445 8.14674 60.7248 8.12667 60.7851 8.08647C60.8253 8.04627 60.8856 7.98601 60.9056 7.8856L62.7135 2.60257C62.7336 2.5624 62.7537 2.52222 62.7537 2.48205C62.7537 2.44187 62.7738 2.42178 62.7738 2.40169C62.7738 2.36152 62.7537 2.32135 62.7135 2.32135C62.6733 2.30126 62.593 2.30126 62.4524 2.30126H62.0707V0.754517H65.4859L68.0164 7.8856C68.077 8.06641 68.1976 8.14674 68.3982 8.14674H68.9006V9.71356H65.2846V8.14674H65.7465C65.867 8.14674 65.9276 8.08647 65.9276 7.96594C65.9276 7.94587 65.9276 7.92574 65.9276 7.90567C65.9276 7.8856 65.9276 7.86554 65.9074 7.80527L65.7067 7.062H63.1957L62.9747 7.78514C62.9546 7.86554 62.9546 7.90567 62.9546 7.96594C62.9546 8.08647 63.0149 8.14674 63.1553 8.14674H63.6173V9.71356H60.082V8.14674ZM63.6173 5.65588H65.2644L64.4213 2.92397L63.6173 5.65588Z" fill="#575757"/>
<path d="M71.9738 3.12452V4.4503H71.6324C71.4715 4.4503 71.3712 4.51056 71.3712 4.63109C71.3712 4.67126 71.3712 4.69135 71.3712 4.71143C71.3712 4.73152 71.3914 4.77169 71.4109 4.85205L71.8931 7.08174L72.8775 3.10443H74.6249L75.6902 7.12194L76.1919 4.85205C76.2121 4.73152 76.2121 4.65117 76.2121 4.63109C76.2121 4.611 76.2121 4.59091 76.2121 4.57082C76.2121 4.49047 76.1117 4.43021 75.9306 4.43021H75.6094V3.10443H78.9642V4.43021H78.5824C78.4221 4.43021 78.3211 4.4503 78.2612 4.51056C78.2006 4.57082 78.1406 4.67126 78.1002 4.83196L76.7144 9.69316H74.8862L73.862 5.71581H73.7213L72.7172 9.69316H70.9294L69.5228 4.97258C69.4426 4.73152 69.3827 4.57082 69.3423 4.53064C69.3019 4.47038 69.2015 4.4503 69.1012 4.4503H68.6992V3.12452H71.9738Z" fill="#575757"/>
<path d="M79.4654 5.33412C79.5058 4.95246 79.5462 4.67124 79.6263 4.45027C79.6863 4.24939 79.8068 4.06861 79.9475 3.90791C80.2088 3.62668 80.5502 3.40572 80.992 3.24502C81.4343 3.08431 81.9165 3.00397 82.4585 3.00397C83.0612 3.00397 83.5837 3.10441 84.0255 3.2852C84.4672 3.46598 84.7885 3.74721 85.01 4.0887C85.0901 4.24939 85.1703 4.43018 85.2308 4.67124C85.2908 4.91229 85.311 5.13325 85.311 5.39438V7.90533C85.311 8.04594 85.3312 8.16647 85.3716 8.2468C85.4113 8.34727 85.4719 8.38741 85.552 8.38741L85.6524 8.36734H85.954V9.73328H84.4073C84.1258 9.73328 83.9453 9.69315 83.8444 9.61275C83.744 9.53242 83.6841 9.35162 83.6437 9.09048C83.3225 9.43201 83.0208 9.65295 82.7198 9.79355C82.4182 9.91409 82.0768 9.99442 81.6552 9.99442C81.3138 9.99442 80.9724 9.93415 80.6707 9.83375C80.3697 9.73328 80.1085 9.59268 79.8876 9.41188C79.6667 9.23108 79.4856 9.01014 79.3651 8.76908C79.2445 8.52807 79.1846 8.2468 79.1846 7.9656C79.1846 7.604 79.2849 7.26253 79.4856 6.96119C79.6863 6.6599 79.9879 6.41885 80.4095 6.19789C80.5502 6.13762 80.6707 6.07736 80.7711 6.03719C80.8916 5.99701 81.0323 5.93675 81.1933 5.89657C81.3536 5.8564 81.5744 5.81623 81.8155 5.77605C82.0768 5.73587 82.4182 5.67561 82.8404 5.59526C83.202 5.535 83.3824 5.3743 83.3824 5.07299C83.3824 4.87211 83.2821 4.69132 83.0814 4.53062C82.8801 4.36992 82.639 4.30966 82.338 4.30966C82.0768 4.30966 81.8357 4.39001 81.6148 4.53062C81.5145 4.61097 81.4343 4.71141 81.3737 4.83193C81.3138 4.95246 81.2734 5.13325 81.2128 5.35421H79.4654V5.33412ZM83.4632 6.43894C83.3622 6.4992 83.2821 6.53937 83.2221 6.55946C83.1616 6.57955 83.0814 6.61973 83.0208 6.63981C82.9407 6.6599 82.8605 6.70008 82.7596 6.72016C82.6592 6.74026 82.4989 6.78045 82.3178 6.84066C81.5145 7.06166 81.1125 7.38306 81.1125 7.84507C81.1125 8.08613 81.2128 8.26687 81.3939 8.40754C81.5744 8.54814 81.8357 8.60841 82.1373 8.60841C82.5191 8.60841 82.8404 8.50794 83.1016 8.30707C83.2417 8.20667 83.3225 8.066 83.3824 7.88527C83.443 7.70446 83.4632 7.44333 83.4828 7.08173L83.4632 6.43894Z" fill="#575757"/>
<path d="M86.9392 8.36772C87.1001 8.36772 87.1802 8.20705 87.1802 7.90572V4.8725C87.1802 4.63145 87.0799 4.53101 86.8786 4.53101H86.4974V3.14497H89.0886L89.1485 3.84803C89.43 3.54672 89.6913 3.32576 89.8919 3.22532C90.0926 3.10479 90.3141 3.06462 90.5552 3.08471C90.6953 3.10479 90.7956 3.12488 90.8562 3.12488C90.9363 3.12488 90.9767 3.14497 91.0171 3.14497C91.0569 3.14497 91.0771 3.14497 91.0973 3.14497C91.1175 3.14497 91.1175 3.14497 91.1377 3.14497V4.5511C90.7155 4.57119 90.3741 4.63145 90.1532 4.69171C89.9323 4.75197 89.7512 4.85241 89.6105 4.99302C89.4502 5.15372 89.3498 5.31443 89.2893 5.5153C89.2293 5.71618 89.1889 5.9974 89.1889 6.35898V8.00618C89.1889 8.26732 89.2893 8.38779 89.4899 8.38779H89.8717V9.73367H86.457V8.38779H86.9392V8.36772Z" fill="#575757"/>
<path d="M93.5288 6.96142C93.6493 7.46362 93.8298 7.84529 94.0507 8.0863C94.2918 8.32737 94.6136 8.4479 95.015 8.4479C95.2964 8.4479 95.5375 8.38763 95.718 8.24703C95.8991 8.1265 96.0398 7.90556 96.1604 7.60423H98.229C98.1085 7.9859 97.9879 8.3073 97.8472 8.52823C97.7071 8.7693 97.5058 8.97017 97.2647 9.17104C96.6425 9.67324 95.8991 9.91431 95.0352 9.91431C94.5328 9.91431 94.0709 9.83391 93.6493 9.65318C93.2272 9.47238 92.8656 9.23131 92.5645 8.9099C92.2629 8.5885 92.0218 8.22696 91.8413 7.80509C91.6602 7.38329 91.5801 6.90115 91.5801 6.39897C91.5801 5.89678 91.6602 5.45486 91.8211 5.01293C91.9821 4.59109 92.2231 4.20943 92.504 3.90812C92.8056 3.6068 93.147 3.36575 93.549 3.18496C93.9504 3.00418 94.3921 2.92383 94.8547 2.92383C95.3368 2.92383 95.7988 3.02426 96.2405 3.20505C96.6823 3.38584 97.0641 3.66707 97.3853 4.00855C97.7267 4.35004 97.9482 4.71162 98.0883 5.09328C98.229 5.47495 98.2896 5.95704 98.2896 6.53958C98.2896 6.55967 98.2896 6.59985 98.2896 6.70028C98.2896 6.78062 98.2896 6.86102 98.2694 6.94135H93.5288V6.96142ZM96.1604 5.65573C96.12 5.2339 95.9994 4.91249 95.7786 4.69153C95.5577 4.47057 95.2762 4.35004 94.8944 4.35004C94.5127 4.35004 94.1914 4.47057 93.9706 4.69153C93.7295 4.93258 93.609 5.2339 93.5888 5.65573H96.1604Z" fill="#575757"/>
</g>
<defs>
<clipPath id="clip0_84_254">
<rect width="98.4466" height="10.0971" fill="white" transform="translate(0 0.422363)"/>
</clipPath>
</defs>
</svg>
