<svg width="47" height="17" viewBox="0 0 47 17" fill="none" xmlns="http://www.w3.org/2000/svg">
<mask id="mask0_84_294" style="mask-type:luminance" maskUnits="userSpaceOnUse" x="0" y="0" width="46" height="16">
<path d="M45.9008 0.171326H0.486816V15.948H45.9008V0.171326Z" fill="white"/>
</mask>
<g mask="url(#mask0_84_294)">
<path d="M0.486816 0.171326V4.81239C0.486816 9.32207 3.42032 13.5107 8.25111 15.948C13.0819 13.5253 16.0154 9.32207 16.0154 4.81239V0.185922H0.486816V0.171326ZM11.8998 5.39618C11.3305 5.95076 10.7759 6.49079 10.2068 7.04537C10.1484 7.10374 10.1338 7.14754 10.1484 7.23507C10.2943 8.03779 10.4257 8.85508 10.557 9.6578C10.557 9.67238 10.557 9.70154 10.5717 9.73075C10.5133 9.70154 10.4841 9.68696 10.4403 9.67238C9.75437 9.3075 9.05383 8.94268 8.36786 8.57779C8.28033 8.534 8.22195 8.534 8.13436 8.57779C7.44839 8.94268 6.76248 9.29292 6.07652 9.6578C6.03274 9.68696 5.98896 9.70154 5.91599 9.73075C5.98896 9.29292 6.06193 8.88424 6.1349 8.46105C6.20787 8.05237 6.28085 7.62911 6.3538 7.22049C6.36844 7.14754 6.3538 7.08917 6.29544 7.03079C5.74085 6.49079 5.18626 5.95076 4.61707 5.41077C4.58788 5.38158 4.55869 5.35239 4.50032 5.29401C4.60248 5.27942 4.67545 5.26482 4.74842 5.25023C5.49274 5.13347 6.22247 5.01671 6.96682 4.91455C7.05435 4.89996 7.09815 4.87077 7.1273 4.7978C7.47761 4.09726 7.82785 3.41131 8.16352 2.71078C8.17816 2.667 8.20731 2.6378 8.23653 2.56483C8.26569 2.62321 8.28033 2.6524 8.30948 2.69618C8.65979 3.39672 9.01003 4.09726 9.3457 4.7978C9.38949 4.87077 9.43329 4.89996 9.50624 4.91455C10.309 5.03131 11.1116 5.14806 11.9143 5.26482C11.9289 5.26482 11.9436 5.27941 11.9873 5.27941C11.9581 5.33779 11.9289 5.36698 11.8998 5.39618Z" fill="#575757"/>
<path d="M26.2648 4.36114C25.7043 4.2035 25.2839 3.99329 25.0387 3.76558C24.7934 3.53786 24.6533 3.24008 24.6533 2.88974C24.6533 2.50438 24.8109 2.17156 25.1263 1.90881C25.4415 1.64606 25.8444 1.52344 26.3524 1.52344C26.7027 1.52344 27.0005 1.5935 27.2633 1.71612C27.526 1.83874 27.7362 2.03142 27.8939 2.25914C28.0515 2.48686 28.1216 2.74961 28.1216 3.02987H27.456C27.456 2.73209 27.3684 2.48686 27.1757 2.31169C26.983 2.13652 26.7203 2.04894 26.3699 2.04894C26.0546 2.04894 25.7919 2.11901 25.6167 2.25914C25.4415 2.39928 25.3364 2.59196 25.3364 2.85471C25.3364 3.06491 25.424 3.22256 25.5992 3.36269C25.7744 3.50283 26.0721 3.62544 26.475 3.74806C26.8779 3.87068 27.2107 3.99329 27.4384 4.13343C27.6661 4.27356 27.8413 4.43121 27.9639 4.62389C28.0865 4.81658 28.1391 5.02677 28.1391 5.28953C28.1391 5.69241 27.9815 6.02523 27.6661 6.25295C27.3508 6.48069 26.9304 6.62079 26.4049 6.62079C26.0546 6.62079 25.7393 6.55074 25.4415 6.42812C25.1437 6.30549 24.9161 6.11281 24.7584 5.8851C24.6007 5.65738 24.5132 5.39463 24.5132 5.11436H25.1788C25.1788 5.41214 25.2839 5.65738 25.5116 5.83255C25.7393 6.00771 26.0371 6.0953 26.4049 6.0953C26.7553 6.0953 27.018 6.02523 27.2107 5.8851C27.4034 5.74496 27.491 5.55228 27.491 5.30704C27.491 5.06181 27.4034 4.86913 27.2282 4.74651C27.053 4.62389 26.7203 4.48376 26.2648 4.36114Z" fill="#575757"/>
<path d="M30.3984 6.65561C29.8904 6.65561 29.4875 6.49797 29.1722 6.16515C28.8569 5.83233 28.6992 5.39441 28.6992 4.8514V4.72878C28.6992 4.36093 28.7693 4.02811 28.9094 3.74785C29.0496 3.46758 29.2423 3.23986 29.505 3.06469C29.7677 2.88953 30.0305 2.81946 30.3283 2.81946C30.8012 2.81946 31.1866 2.97711 31.4493 3.29241C31.7121 3.60771 31.8522 4.06315 31.8522 4.65871V4.92146H29.3474C29.3649 5.28931 29.47 5.58709 29.6627 5.7973C29.8553 6.0075 30.1181 6.13012 30.4334 6.13012C30.6611 6.13012 30.8538 6.07756 30.9939 5.98998C31.1341 5.9024 31.2917 5.77978 31.3968 5.62213L31.7822 5.91991C31.4844 6.41038 31.0114 6.65561 30.3984 6.65561ZM30.3108 3.32744C30.048 3.32744 29.8379 3.41503 29.6627 3.60771C29.4875 3.8004 29.3824 4.04563 29.3474 4.39596H31.2041V4.34341C31.1866 4.02811 31.099 3.76536 30.9414 3.59019C30.7837 3.41503 30.591 3.32744 30.3108 3.32744Z" fill="#575757"/>
<path d="M34.0597 6.13012C34.2874 6.13012 34.4801 6.06005 34.6552 5.91991C34.8304 5.77978 34.918 5.60461 34.9355 5.41193H35.5311C35.5135 5.62213 35.4435 5.83233 35.3209 6.02501C35.1982 6.2177 35.0056 6.37536 34.7778 6.48043C34.5501 6.58556 34.3224 6.65561 34.0597 6.65561C33.5517 6.65561 33.1488 6.48043 32.851 6.14763C32.5532 5.81482 32.4131 5.35938 32.4131 4.76381V4.65871C32.4131 4.29086 32.4831 3.97556 32.6057 3.69529C32.7284 3.41503 32.9211 3.20483 33.1838 3.04718C33.4466 2.88953 33.7268 2.81946 34.0597 2.81946C34.4801 2.81946 34.8128 2.94207 35.0932 3.18731C35.3734 3.43254 35.5135 3.76536 35.5311 4.15073H34.9355C34.918 3.90549 34.8304 3.71281 34.6552 3.55516C34.4801 3.39751 34.2874 3.32744 34.0597 3.32744C33.7444 3.32744 33.4816 3.45006 33.3064 3.67778C33.1313 3.90549 33.0437 4.23831 33.0437 4.67623V4.79885C33.0437 5.21925 33.1313 5.55206 33.3064 5.77978C33.4816 6.0075 33.7268 6.13012 34.0597 6.13012Z" fill="#575757"/>
<path d="M38.5261 6.21818C38.2809 6.51599 37.9131 6.65609 37.4401 6.65609C37.0372 6.65609 36.7394 6.53347 36.5467 6.30577C36.3541 6.07805 36.2314 5.74523 36.2314 5.2898V2.8725H36.862V5.27228C36.862 5.83282 37.0898 6.11308 37.5452 6.11308C38.0357 6.11308 38.3509 5.93792 38.5086 5.57007V2.8725H39.1392V6.5685H38.5436L38.5261 6.21818Z" fill="#575757"/>
<path d="M41.8897 3.45006C41.8021 3.43254 41.697 3.43255 41.5744 3.43255C41.154 3.43255 40.8737 3.60771 40.7336 3.95804V6.58556H40.103V2.88953H40.7161L40.7336 3.30993C40.9438 2.97711 41.2416 2.81946 41.6094 2.81946C41.7321 2.81946 41.8197 2.83698 41.8897 2.87201V3.45006Z" fill="#575757"/>
<path d="M43.9389 6.65561C43.4309 6.65561 43.028 6.49797 42.7127 6.16515C42.3974 5.83233 42.2397 5.39441 42.2397 4.8514V4.72878C42.2397 4.36093 42.3098 4.02811 42.45 3.74785C42.5901 3.46758 42.7828 3.23986 43.0455 3.06469C43.3083 2.88953 43.571 2.81946 43.8688 2.81946C44.3418 2.81946 44.7271 2.97711 44.9899 3.29241C45.2526 3.60771 45.3928 4.06315 45.3928 4.65871V4.92146H42.8879C42.9054 5.28931 43.0105 5.58709 43.2031 5.7973C43.3959 6.0075 43.6586 6.13012 43.9739 6.13012C44.2016 6.13012 44.3943 6.07756 44.5344 5.98998C44.6746 5.9024 44.8322 5.77978 44.9373 5.62213L45.3227 5.91991C45.0249 6.41038 44.5695 6.65561 43.9389 6.65561ZM43.8688 3.32744C43.6061 3.32744 43.3959 3.41503 43.2207 3.60771C43.0455 3.8004 42.9404 4.04563 42.9054 4.39596H44.7621V4.34341C44.7446 4.02811 44.657 3.76536 44.4994 3.59019C44.3418 3.41503 44.1316 3.32744 43.8688 3.32744Z" fill="#575757"/>
<path d="M24.8105 13.5921V8.61743H26.4396C26.9826 8.61743 27.3855 8.7225 27.6658 8.95026C27.9461 9.17795 28.0687 9.51077 28.0687 9.94867C28.0687 10.1764 27.9986 10.3866 27.876 10.5618C27.7533 10.7369 27.5607 10.8771 27.333 10.9822C27.5957 11.0522 27.8235 11.1924 27.9636 11.4201C28.1037 11.6478 28.1913 11.8755 28.1913 12.1733C28.1913 12.6288 28.0511 12.9791 27.7533 13.2243C27.4556 13.4695 27.0527 13.6097 26.5272 13.6097H24.8105V13.5921ZM25.4587 10.7369H26.4571C26.7374 10.7369 26.9826 10.6669 27.1403 10.5267C27.3154 10.3866 27.403 10.1939 27.403 9.94867C27.403 9.66841 27.3154 9.47575 27.1578 9.35313C27.0002 9.23051 26.7549 9.1604 26.4221 9.1604H25.4587V10.7369ZM25.4587 11.2624V13.0492H26.5447C26.8425 13.0492 27.0878 12.9616 27.2629 12.8039C27.4381 12.6462 27.5257 12.4185 27.5257 12.1558C27.5257 11.5602 27.1928 11.2624 26.5447 11.2624H25.4587Z" fill="#575757"/>
<path d="M30.6088 13.6627C30.1008 13.6627 29.6979 13.505 29.3827 13.1722C29.0674 12.8394 28.9097 12.4015 28.9097 11.8585V11.7358C28.9097 11.368 28.9798 11.0352 29.1199 10.7549C29.26 10.4746 29.4527 10.247 29.7155 10.0718C29.9782 9.89659 30.241 9.82654 30.5388 9.82654C31.0117 9.82654 31.3971 9.98418 31.6598 10.2995C31.9226 10.6148 32.0627 11.0702 32.0627 11.6658V11.9286H29.5578C29.5753 12.2964 29.6805 12.5942 29.8731 12.8044C30.0658 13.0146 30.3286 13.1372 30.6438 13.1372C30.8716 13.1372 31.0643 13.0846 31.2044 12.997C31.3445 12.9095 31.5022 12.7869 31.6073 12.6292L31.9926 12.927C31.6948 13.4174 31.2219 13.6627 30.6088 13.6627ZM30.5212 10.3345C30.2585 10.3345 30.0483 10.4221 29.8731 10.6148C29.6979 10.8075 29.5929 11.0527 29.5578 11.403H31.4146V11.3505C31.3971 11.0352 31.3095 10.7724 31.1519 10.5973C30.9942 10.4221 30.784 10.3345 30.5212 10.3345Z" fill="#575757"/>
<path d="M33.6394 8.98556V9.8789H34.3226V10.3694H33.6394V12.6641C33.6394 12.8042 33.6745 12.9268 33.727 12.9969C33.7971 13.0669 33.9022 13.102 34.0423 13.102C34.1124 13.102 34.2175 13.0845 34.3401 13.0669V13.5749C34.1649 13.6275 34.0073 13.645 33.8497 13.645C33.5694 13.645 33.3592 13.5574 33.2015 13.3823C33.0439 13.2071 32.9913 12.9619 32.9913 12.6466V10.3519H32.3257V9.86142H32.9913V8.96802H33.6394V8.98556Z" fill="#575757"/>
<path d="M35.9339 8.98556V9.8789H36.617V10.3694H35.9339V12.6641C35.9339 12.8042 35.9689 12.9268 36.0214 12.9969C36.0915 13.0669 36.1966 13.102 36.3367 13.102C36.4068 13.102 36.5119 13.0845 36.6345 13.0669V13.5749C36.4594 13.6275 36.3017 13.645 36.144 13.645C35.8638 13.645 35.6536 13.5574 35.4959 13.3823C35.3383 13.2071 35.2857 12.9619 35.2857 12.6466V10.3519H34.6201V9.86142H35.2857V8.96802H35.9339V8.98556Z" fill="#575757"/>
<path d="M37.3525 8.89776C37.3525 8.79268 37.3876 8.70509 37.4401 8.63498C37.4926 8.56493 37.5978 8.52991 37.7204 8.52991C37.843 8.52991 37.9305 8.56493 38.0006 8.63498C38.0707 8.70509 38.0882 8.79268 38.0882 8.89776C38.0882 9.00283 38.0532 9.09042 38.0006 9.16053C37.9481 9.23058 37.843 9.26561 37.7204 9.26561C37.5978 9.26561 37.5102 9.23058 37.4401 9.16053C37.37 9.09042 37.3525 9.00283 37.3525 8.89776ZM38.0357 13.5922H37.405V9.89623H38.0357V13.5922Z" fill="#575757"/>
<path d="M39.6478 9.87911L39.6653 10.352C39.9456 10.0017 40.3134 9.82654 40.7689 9.82654C41.5571 9.82654 41.9425 10.2644 41.96 11.1578V13.6101H41.3295V11.1578C41.3295 10.8951 41.2593 10.7023 41.1543 10.5622C41.0491 10.4221 40.8565 10.3696 40.5937 10.3696C40.3835 10.3696 40.2084 10.4221 40.0507 10.5272C39.8931 10.6323 39.7705 10.7724 39.6829 10.9651V13.6101H39.0522V9.91413H39.6478V9.87911Z" fill="#575757"/>
<path d="M42.7651 11.7005C42.7651 11.1225 42.9053 10.667 43.168 10.3167C43.4308 9.96636 43.7811 9.80872 44.2365 9.80872C44.692 9.80872 45.0423 9.96636 45.2875 10.2816L45.3226 9.87876H45.9006V13.4872C45.9006 13.9601 45.7605 14.3455 45.4802 14.6258C45.2 14.906 44.8146 15.0462 44.3416 15.0462C44.0789 15.0462 43.8161 14.9936 43.5534 14.871C43.2906 14.7484 43.098 14.6082 42.9753 14.3981L43.3082 14.0127C43.5709 14.3455 43.9037 14.5207 44.3066 14.5207C44.6219 14.5207 44.8496 14.4331 45.0248 14.2579C45.2 14.0827 45.2875 13.8375 45.2875 13.5222V13.207C45.0423 13.5047 44.692 13.6449 44.2541 13.6449C43.8161 13.6449 43.4658 13.4697 43.203 13.1194C42.9403 12.769 42.7651 12.3136 42.7651 11.7005ZM43.4132 11.7706C43.4132 12.1909 43.5008 12.5238 43.676 12.7515C43.8512 12.9792 44.0789 13.1018 44.3942 13.1018C44.797 13.1018 45.0949 12.9267 45.27 12.5588V10.8772C45.0774 10.5269 44.7796 10.3517 44.3942 10.3517C44.0789 10.3517 43.8512 10.4743 43.676 10.7195C43.5008 10.9648 43.4132 11.3151 43.4132 11.7706Z" fill="#575757"/>
</g>
</svg>
