<svg width="49" height="19" viewBox="0 0 49 19" fill="none" xmlns="http://www.w3.org/2000/svg">
<path d="M5.50394 11.288C6.32527 11.4587 6.73594 11.9227 6.73594 12.68V15.256C6.73594 15.832 6.5706 16.2693 6.23994 16.568C5.90927 16.856 5.4346 17 4.81594 17H1.13594V5.88H4.67194C5.90927 5.88 6.52794 6.46667 6.52794 7.64V9.912C6.52794 10.2533 6.43727 10.5147 6.25594 10.696C6.08527 10.8773 5.8346 11.0053 5.50394 11.08V11.288ZM4.67194 7.464H2.99194V10.456H4.67194V7.464ZM2.99194 15.416H4.83194V12.024H2.99194V15.416ZM12.5527 7.576H9.96069V10.52H12.1047L11.7847 12.152H9.96069V15.304H12.6807L12.3607 17H8.10469V5.88H12.2327L12.5527 7.576ZM18.2063 5.88L18.5263 7.624H16.7343V17H14.8783V7.624H13.0863L13.4063 5.88H18.2063ZM23.6751 5.88L23.9951 7.624H22.2031V17H20.3471V7.624H18.5551L18.8751 5.88H23.6751ZM29.9438 5.88V12.168C29.9438 13.2987 29.3678 13.8907 28.2158 13.944V17H26.3598V13.944C25.1865 13.912 24.5998 13.32 24.5998 12.168V5.88H26.4558V12.328H28.0878V5.88H29.9438ZM37.5771 5.8C38.1851 5.8 38.6437 5.95467 38.9531 6.264C39.2731 6.57333 39.4331 7.02133 39.4331 7.608V17H37.5771V13.896H35.9291V17H34.0731V7.56C34.0731 6.38667 34.6917 5.8 35.9291 5.8H37.5771ZM35.9291 12.328H37.5771V7.4H35.9291V12.328ZM42.8669 17H41.0109V5.88H42.8669V17Z" fill="#00E5F9"/>
<path d="M46.506 3.776C46.91 3.776 47.27 3.868 47.586 4.052C47.902 4.232 48.146 4.484 48.318 4.808C48.494 5.128 48.582 5.494 48.582 5.906C48.582 6.318 48.494 6.686 48.318 7.01C48.146 7.33 47.902 7.582 47.586 7.766C47.27 7.946 46.91 8.036 46.506 8.036C46.098 8.036 45.736 7.946 45.42 7.766C45.104 7.582 44.858 7.33 44.682 7.01C44.506 6.686 44.418 6.318 44.418 5.906C44.418 5.494 44.506 5.128 44.682 4.808C44.858 4.484 45.104 4.232 45.42 4.052C45.736 3.868 46.098 3.776 46.506 3.776ZM46.506 4.016C46.134 4.016 45.81 4.096 45.534 4.256C45.258 4.412 45.046 4.632 44.898 4.916C44.75 5.2 44.676 5.53 44.676 5.906C44.676 6.278 44.75 6.608 44.898 6.896C45.046 7.18 45.258 7.402 45.534 7.562C45.81 7.722 46.134 7.802 46.506 7.802C46.874 7.802 47.194 7.722 47.466 7.562C47.742 7.402 47.954 7.18 48.102 6.896C48.25 6.608 48.324 6.278 48.324 5.906C48.324 5.53 48.25 5.2 48.102 4.916C47.954 4.632 47.742 4.412 47.466 4.256C47.194 4.096 46.874 4.016 46.506 4.016ZM46.494 4.514C46.254 4.514 46.034 4.57 45.834 4.682C45.638 4.794 45.482 4.956 45.366 5.168C45.25 5.376 45.192 5.62 45.192 5.9C45.192 6.18 45.25 6.426 45.366 6.638C45.482 6.846 45.638 7.008 45.834 7.124C46.034 7.236 46.254 7.292 46.494 7.292C46.794 7.292 47.054 7.212 47.274 7.052C47.494 6.888 47.644 6.67 47.724 6.398H47.22C47.1 6.73 46.858 6.896 46.494 6.896C46.254 6.896 46.058 6.81 45.906 6.638C45.754 6.466 45.678 6.222 45.678 5.906C45.678 5.586 45.754 5.34 45.906 5.168C46.058 4.996 46.254 4.91 46.494 4.91C46.67 4.91 46.822 4.954 46.95 5.042C47.078 5.126 47.168 5.248 47.22 5.408H47.724C47.648 5.124 47.5 4.904 47.28 4.748C47.06 4.592 46.798 4.514 46.494 4.514Z" fill="#00E5F9"/>
</svg>
