<svg width="105" height="35" viewBox="0 0 105 35" fill="none" xmlns="http://www.w3.org/2000/svg">
<g clip-path="url(#clip0_7_4040)">
<path d="M96.3818 -8.32031e-06H9.02912C8.71071 -8.32031e-06 8.39611 -8.32026e-06 8.07855 0.00174168C7.81271 0.00349168 7.54899 0.00857543 7.28061 0.0128542C6.69754 0.0197683 6.11585 0.0714584 5.54059 0.167475C4.96613 0.265583 4.40967 0.450543 3.89002 0.7161C3.37101 0.983904 2.89678 1.33189 2.48452 1.74743C2.0701 2.1618 1.72465 2.64076 1.46145 3.16588C1.19753 3.68996 1.01452 4.25156 0.918757 4.83129C0.82208 5.41028 0.770057 5.99595 0.763155 6.58304C0.755097 6.85131 0.754246 7.12048 0.75 7.38879V27.6138C0.754246 27.8855 0.755097 28.1487 0.763155 28.4204C0.770059 29.0075 0.822082 29.5931 0.918757 30.1721C1.01426 30.7522 1.19728 31.3141 1.46145 31.8384C1.72453 32.3618 2.07003 32.8388 2.48452 33.2509C2.89521 33.6683 3.36976 34.0165 3.89002 34.2822C4.40966 34.5485 4.96607 34.7346 5.54059 34.8342C6.11595 34.9294 6.69758 34.9811 7.28061 34.9889C7.54899 34.9948 7.81271 34.9982 8.07855 34.9982C8.39611 35 8.71072 35 9.02912 35H96.3818C96.6939 35 97.011 35 97.3231 34.9982C97.5876 34.9982 97.859 34.9948 98.1236 34.9889C98.7055 34.9816 99.286 34.9298 99.8602 34.8342C100.437 34.7339 100.995 34.5478 101.517 34.2822C102.037 34.0163 102.511 33.6681 102.921 33.2509C103.335 32.8372 103.681 32.3605 103.947 31.8384C104.21 31.3137 104.391 30.7518 104.485 30.1721C104.582 29.593 104.636 29.0075 104.646 28.4204C104.649 28.1487 104.649 27.8855 104.649 27.6138C104.656 27.2959 104.656 26.9797 104.656 26.6567V8.3441C104.656 8.02367 104.656 7.7058 104.649 7.38879C104.649 7.12048 104.649 6.85131 104.646 6.583C104.636 5.99586 104.582 5.41032 104.485 4.83125C104.391 4.25186 104.209 3.69031 103.947 3.16585C103.411 2.11329 102.561 1.25651 101.517 0.716022C100.995 0.451113 100.437 0.266202 99.8602 0.167397C99.2861 0.0709566 98.7055 0.0192485 98.1236 0.0127317C97.859 0.00846168 97.5876 0.00333418 97.3231 0.00162793C97.011 -0.00012207 96.6939 -0.00012207 96.3818 -0.00012207V-8.32031e-06Z" fill="black"/>
<path d="M8.08279 34.2344C7.81823 34.2344 7.56006 34.231 7.29758 34.225C6.75383 34.2179 6.21134 34.1702 5.67458 34.0823C5.17407 33.9954 4.68921 33.8339 4.236 33.6029C3.78695 33.3738 3.37737 33.0735 3.02296 32.7134C2.66343 32.3575 2.3641 31.9447 2.13684 31.4914C1.90707 31.0352 1.74806 30.5462 1.66534 30.0414C1.57601 29.499 1.52768 28.9505 1.52077 28.4007C1.51526 28.2162 1.50806 27.6018 1.50806 27.6018V7.3888C1.50806 7.3888 1.51573 6.78381 1.52081 6.60607C1.52743 6.05717 1.57548 5.50957 1.66454 4.96801C1.74742 4.46184 1.90655 3.9714 2.13644 3.51368C2.36287 3.0607 2.66053 2.64763 3.0179 2.29047C3.37487 1.92992 3.78576 1.62803 4.23558 1.39581C4.68775 1.16558 5.17169 1.00514 5.67118 0.919861C6.20971 0.831107 6.75408 0.783122 7.29972 0.776309L8.08322 0.765625H97.3188L98.1117 0.776738C98.6523 0.783212 99.1918 0.830769 99.7253 0.919004C100.23 1.00535 100.719 1.16691 101.176 1.39837C102.077 1.86636 102.811 2.60677 103.273 3.51581C103.499 3.97038 103.656 4.45682 103.738 4.95862C103.828 5.50462 103.878 6.05652 103.889 6.60992C103.891 6.85772 103.891 7.1239 103.891 7.3888C103.898 7.71692 103.898 8.02924 103.898 8.34411V26.6567C103.898 26.9746 103.898 27.2848 103.891 27.5975C103.891 27.882 103.891 28.1427 103.888 28.411C103.878 28.9545 103.828 29.4966 103.74 30.0328C103.659 30.5412 103.5 31.0341 103.271 31.494C103.042 31.9424 102.744 32.3516 102.389 32.7065C102.034 33.0686 101.624 33.3707 101.174 33.6012C100.718 33.834 100.229 33.9961 99.7253 34.0823C99.1886 34.1706 98.6461 34.2183 98.1023 34.225C97.848 34.231 97.5816 34.2344 97.3231 34.2344L96.3818 34.2361L8.08279 34.2344Z" fill="white"/>
<path d="M22.455 17.4032C22.4648 16.6437 22.6649 15.8991 23.037 15.2385C23.409 14.578 23.9408 14.023 24.5829 13.6252C24.175 13.0381 23.6369 12.555 23.0113 12.2142C22.3857 11.8734 21.6899 11.6843 20.9791 11.6619C19.4628 11.5015 17.9928 12.5762 17.2201 12.5762C16.4325 12.5762 15.2429 11.6778 13.9618 11.7044C13.1332 11.7313 12.3256 11.9742 11.6178 12.4091C10.91 12.8441 10.3261 13.4565 9.92294 14.1865C8.17666 17.2332 9.47923 21.7109 11.152 24.1737C11.989 25.3797 12.9671 26.7268 14.2471 26.679C15.4995 26.6266 15.9673 25.8742 17.4791 25.8742C18.9769 25.8742 19.4158 26.679 20.7216 26.6486C22.0656 26.6266 22.9123 25.4373 23.7199 24.2199C24.3213 23.3607 24.784 22.411 25.091 21.406C24.3102 21.0733 23.6439 20.5162 23.1751 19.8044C22.7064 19.0926 22.4559 18.2575 22.455 17.4032Z" fill="black"/>
<path d="M19.9885 10.0422C20.7213 9.15577 21.0823 8.0164 20.9949 6.86606C19.8754 6.98455 18.8412 7.52372 18.0986 8.37615C17.7355 8.79258 17.4573 9.27705 17.2801 9.80186C17.1029 10.3267 17.0301 10.8815 17.0658 11.4347C17.6258 11.4405 18.1798 11.3182 18.686 11.077C19.1923 10.8358 19.6376 10.482 19.9885 10.0422Z" fill="black"/>
<path d="M37.4813 23.7472H33.3712L32.3842 26.6841H30.6433L34.5363 15.8184H36.345L40.238 26.6841H38.4675L37.4813 23.7472ZM33.7969 22.392H37.0548L35.4488 17.6256H35.4038L33.7969 22.392Z" fill="black"/>
<path d="M48.6456 22.7235C48.6456 25.1853 47.338 26.767 45.3648 26.767C44.865 26.7933 44.3679 26.6773 43.9304 26.4322C43.493 26.1871 43.1328 25.8228 42.8913 25.381H42.854V29.3048H41.2403V18.7621H42.8022V20.0797H42.8319C43.0846 19.6401 43.4508 19.2777 43.8915 19.0311C44.3323 18.7844 44.8312 18.6628 45.3351 18.6792C47.3304 18.6792 48.6456 20.2686 48.6456 22.7235ZM46.987 22.7235C46.987 21.1197 46.1644 20.0652 44.9095 20.0652C43.6765 20.0652 42.8472 21.1419 42.8472 22.7235C42.8472 24.3197 43.6765 25.3887 44.9095 25.3887C46.1645 25.3887 46.9869 24.342 46.9869 22.7235H46.987Z" fill="black"/>
<path d="M57.2987 22.7235C57.2987 25.1853 55.9907 26.767 54.0175 26.767C53.5176 26.7933 53.0205 26.6773 52.5831 26.4322C52.1456 26.1871 51.7855 25.8228 51.544 25.381H51.5066V29.3048H49.8929V18.7621H51.4549V20.0797H51.4846C51.7372 19.6401 52.1034 19.2777 52.5442 19.0311C52.985 18.7844 53.4839 18.6628 53.9878 18.6792C55.9831 18.6792 57.2987 20.2686 57.2987 22.7235ZM55.6396 22.7235C55.6396 21.1197 54.8171 20.0652 53.5621 20.0652C52.3292 20.0652 51.4999 21.1419 51.4999 22.7235C51.4999 24.3197 52.3292 25.3887 53.5621 25.3887C54.8171 25.3887 55.6396 24.342 55.6396 22.7235Z" fill="black"/>
<path d="M63.0165 23.6566C63.1361 24.7341 64.1748 25.4416 65.5943 25.4416C66.9545 25.4416 67.933 24.7341 67.933 23.7626C67.933 22.9192 67.3428 22.4142 65.9454 22.0681L64.5479 21.7289C62.5679 21.2469 61.6487 20.3138 61.6487 18.7997C61.6487 16.9249 63.27 15.6372 65.5714 15.6372C67.8508 15.6372 69.4127 16.9249 69.4653 18.7997H67.8363C67.7388 17.7153 66.8493 17.0608 65.5494 17.0608C64.2494 17.0608 63.3599 17.723 63.3599 18.6869C63.3599 19.4551 63.9281 19.9071 65.3179 20.2531L66.5059 20.5471C68.7182 21.0743 69.6366 21.9698 69.6366 23.5591C69.6366 25.592 68.0305 26.8652 65.4747 26.8652C63.0834 26.8652 61.4689 25.6219 61.3646 23.6566L63.0165 23.6566Z" fill="black"/>
<path d="M73.1208 16.8873V18.7621H74.6158V20.0498H73.1208V24.4171C73.1208 25.0956 73.4201 25.4117 74.0773 25.4117C74.2548 25.4086 74.432 25.3961 74.6081 25.3741V26.6541C74.3127 26.7098 74.0124 26.735 73.7118 26.7293C72.1202 26.7293 71.4995 26.1269 71.4995 24.5905V20.0498H70.3564V18.7621H71.4995V16.8873H73.1208Z" fill="black"/>
<path d="M75.4807 22.7235C75.4807 20.231 76.9375 18.6647 79.2092 18.6647C81.4885 18.6647 82.9386 20.231 82.9386 22.7235C82.9386 25.2229 81.4962 26.7824 79.2092 26.7824C76.9231 26.7824 75.4807 25.2229 75.4807 22.7235ZM81.2944 22.7235C81.2944 21.0137 80.5168 20.0045 79.2092 20.0045C77.9016 20.0045 77.1241 21.0214 77.1241 22.7235C77.1241 24.4402 77.9016 25.4417 79.2092 25.4417C80.5168 25.4417 81.2944 24.4402 81.2944 22.7235H81.2944Z" fill="black"/>
<path d="M84.2691 18.7621H85.8081V20.1105H85.8454C85.9496 19.6894 86.1944 19.3172 86.5388 19.0565C86.8831 18.7959 87.306 18.6626 87.7364 18.6792C87.9224 18.6785 88.1078 18.6989 88.2893 18.7399V20.2609C88.0545 20.1886 87.8096 20.1554 87.5642 20.1626C87.3298 20.153 87.0961 20.1947 86.8792 20.2847C86.6622 20.3747 86.4672 20.511 86.3074 20.6841C86.1477 20.8573 86.027 21.0632 85.9537 21.2878C85.8804 21.5124 85.8562 21.7503 85.8827 21.9852V26.6841H84.269L84.2691 18.7621Z" fill="black"/>
<path d="M95.7293 24.3573C95.5122 25.7954 94.1224 26.7823 92.3442 26.7823C90.0572 26.7823 88.6378 25.2383 88.6378 22.7611C88.6378 20.2762 90.0649 18.6647 92.2764 18.6647C94.4514 18.6647 95.8192 20.1703 95.8192 22.5723V23.1294H90.2667V23.2277C90.2411 23.5192 90.2773 23.8129 90.373 24.0893C90.4686 24.3656 90.6216 24.6183 90.8216 24.8306C91.0216 25.0428 91.2641 25.2097 91.5331 25.3202C91.8021 25.4307 92.0913 25.4823 92.3815 25.4716C92.7629 25.5076 93.1455 25.4186 93.4726 25.2178C93.7997 25.017 94.0538 24.7152 94.197 24.3573L95.7293 24.3573ZM90.2743 21.9929H94.2046C94.2191 21.7308 94.1797 21.4684 94.0888 21.2224C93.9979 20.9763 93.8575 20.7519 93.6765 20.5631C93.4954 20.3743 93.2776 20.2252 93.0366 20.1253C92.7957 20.0253 92.5369 19.9767 92.2764 19.9823C92.0136 19.9807 91.7531 20.0316 91.5099 20.132C91.2668 20.2324 91.0457 20.3803 90.8596 20.5673C90.6735 20.7542 90.5259 20.9764 90.4255 21.2211C90.325 21.4658 90.2736 21.7281 90.2743 21.9929V21.9929Z" fill="black"/>
<path d="M33.5951 7.63962C33.9334 7.61516 34.2729 7.66666 34.589 7.79041C34.9052 7.91417 35.1902 8.10709 35.4234 8.35526C35.6566 8.60343 35.8323 8.90067 35.9377 9.22553C36.0431 9.55039 36.0756 9.89478 36.033 10.2339C36.033 11.9018 35.1384 12.8606 33.5951 12.8606H31.7236V7.63962H33.5951ZM32.5283 12.1222H33.5052C33.7469 12.1368 33.9889 12.0969 34.2134 12.0053C34.4379 11.9138 34.6393 11.773 34.8029 11.5931C34.9666 11.4132 35.0884 11.1988 35.1595 10.9655C35.2306 10.7323 35.2492 10.4859 35.2138 10.2445C35.2466 10.004 35.2261 9.75922 35.154 9.52764C35.0818 9.29606 34.9597 9.08343 34.7964 8.90499C34.6331 8.72655 34.4326 8.58672 34.2094 8.49551C33.9862 8.4043 33.7457 8.36398 33.5052 8.37743H32.5283V12.1222Z" fill="black"/>
<path d="M36.942 10.8888C36.9174 10.6299 36.9468 10.3686 37.0283 10.1218C37.1098 9.87502 37.2416 9.64809 37.4152 9.45561C37.5888 9.26312 37.8004 9.10933 38.0365 9.00409C38.2725 8.89885 38.5278 8.84448 38.7859 8.84448C39.044 8.84448 39.2993 8.89885 39.5354 9.00409C39.7714 9.10933 39.983 9.26312 40.1566 9.45561C40.3303 9.64809 40.462 9.87502 40.5435 10.1218C40.625 10.3686 40.6544 10.6299 40.6298 10.8888C40.6549 11.148 40.6258 11.4096 40.5445 11.6568C40.4633 11.904 40.3316 12.1314 40.1579 12.3242C39.9843 12.5171 39.7725 12.6712 39.5362 12.7767C39.2999 12.8822 39.0443 12.9366 38.7859 12.9366C38.5275 12.9366 38.2719 12.8822 38.0356 12.7767C37.7993 12.6712 37.5876 12.5171 37.4139 12.3242C37.2402 12.1314 37.1085 11.904 37.0273 11.6568C36.946 11.4096 36.917 11.148 36.942 10.8888ZM39.8361 10.8888C39.8361 10.0348 39.4554 9.5353 38.7872 9.5353C38.1164 9.5353 37.7391 10.0348 37.7391 10.8888C37.7391 11.7497 38.1165 12.2453 38.7872 12.2453C39.4554 12.2453 39.8361 11.7463 39.8361 10.8888H39.8361Z" fill="black"/>
<path d="M45.5319 12.8605H44.7314L43.9233 9.95868H43.8623L43.0576 12.8605H42.2647L41.187 8.92047H41.9696L42.67 11.927H42.7277L43.5316 8.92047H44.2719L45.0757 11.927H45.1368L45.8338 8.92047H46.6054L45.5319 12.8605Z" fill="black"/>
<path d="M47.5119 8.92048H48.2547V9.54639H48.3124C48.4102 9.32159 48.5752 9.13314 48.7843 9.00731C48.9935 8.88148 49.2364 8.82454 49.4792 8.84442C49.6694 8.83001 49.8605 8.85892 50.0381 8.929C50.2158 8.99908 50.3755 9.10855 50.5055 9.24929C50.6354 9.39003 50.7323 9.55843 50.7889 9.74202C50.8456 9.92562 50.8605 10.1197 50.8325 10.3099V12.8605H50.0609V10.5051C50.0609 9.87196 49.7878 9.55708 49.2172 9.55708C49.088 9.55101 48.959 9.57317 48.8392 9.62202C48.7193 9.67087 48.6113 9.74527 48.5226 9.8401C48.434 9.93494 48.3667 10.048 48.3254 10.1715C48.2841 10.295 48.2699 10.426 48.2835 10.5555V12.8605H47.5119L47.5119 8.92048Z" fill="black"/>
<path d="M52.0621 7.38239H52.8337V12.8605H52.0621V7.38239Z" fill="black"/>
<path d="M53.9064 10.8888C53.8818 10.6298 53.9113 10.3686 53.9928 10.1218C54.0743 9.87495 54.2061 9.64802 54.3797 9.45553C54.5533 9.26304 54.765 9.10924 55.001 9.004C55.2371 8.89876 55.4924 8.84439 55.7505 8.84439C56.0087 8.84439 56.2639 8.89876 56.5 9.004C56.7361 9.10924 56.9477 9.26304 57.1214 9.45553C57.295 9.64802 57.4268 9.87495 57.5083 10.1218C57.5898 10.3686 57.6192 10.6298 57.5946 10.8888C57.6196 11.148 57.5906 11.4096 57.5093 11.6568C57.428 11.904 57.2963 12.1314 57.1226 12.3242C56.9489 12.5171 56.7371 12.6712 56.5008 12.7767C56.2645 12.8821 56.009 12.9366 55.7505 12.9366C55.4921 12.9366 55.2365 12.8821 55.0002 12.7767C54.7639 12.6712 54.5521 12.5171 54.3784 12.3242C54.2048 12.1314 54.073 11.904 53.9918 11.6568C53.9105 11.4096 53.8814 11.148 53.9064 10.8888ZM56.8005 10.8888C56.8005 10.0347 56.4198 9.53528 55.7516 9.53528C55.0808 9.53528 54.7035 10.0347 54.7035 10.8888C54.7035 11.7497 55.0809 12.2453 55.7516 12.2453C56.4198 12.2453 56.8005 11.7463 56.8005 10.8888H56.8005Z" fill="black"/>
<path d="M58.407 11.7463C58.407 11.0371 58.931 10.6282 59.8612 10.5701L60.9204 10.5086V10.1685C60.9204 9.75234 60.6473 9.51736 60.1199 9.51736C59.6891 9.51736 59.3906 9.67673 59.305 9.95529H58.5579C58.6368 9.27853 59.2685 8.84445 60.1555 8.84445C61.1357 8.84445 61.6886 9.3362 61.6886 10.1685V12.8606H60.9458V12.3069H60.8847C60.7608 12.5055 60.5868 12.6674 60.3805 12.7761C60.1741 12.8848 59.9429 12.9363 59.7103 12.9255C59.5462 12.9427 59.3803 12.925 59.2233 12.8737C59.0663 12.8223 58.9218 12.7384 58.799 12.6273C58.6762 12.5162 58.5779 12.3804 58.5104 12.2286C58.4429 12.0769 58.4076 11.9126 58.407 11.7463ZM60.9204 11.4096V11.0802L59.9655 11.1417C59.4271 11.1781 59.1829 11.3626 59.1829 11.71C59.1829 12.0646 59.4881 12.271 59.9079 12.271C60.0309 12.2835 60.1551 12.271 60.2732 12.2342C60.3913 12.1973 60.5009 12.1369 60.5953 12.0566C60.6898 11.9762 60.7672 11.8775 60.8231 11.7664C60.8789 11.6552 60.912 11.5339 60.9204 11.4096Z" fill="black"/>
<path d="M62.7028 10.8888C62.7028 9.64381 63.3379 8.85511 64.3258 8.85511C64.5701 8.84377 64.8126 8.90275 65.025 9.02515C65.2373 9.14756 65.4107 9.32834 65.5248 9.54636H65.5825V7.38239H66.3541V12.8605H65.6147V12.238H65.5536C65.4307 12.4546 65.2513 12.6331 65.0348 12.7543C64.8184 12.8755 64.5732 12.9347 64.3258 12.9255C63.3311 12.9255 62.7028 12.1368 62.7028 10.8888ZM63.4999 10.8888C63.4999 11.7245 63.8908 12.2274 64.5446 12.2274C65.1949 12.2274 65.5969 11.7172 65.5969 10.8922C65.5969 10.0711 65.1907 9.55366 64.5446 9.55366C63.895 9.55366 63.4998 10.0599 63.4998 10.8888H63.4999Z" fill="black"/>
<path d="M69.5467 10.8888C69.5221 10.6299 69.5515 10.3686 69.633 10.1218C69.7145 9.87502 69.8462 9.64809 70.0199 9.45561C70.1935 9.26312 70.4051 9.10933 70.6411 9.00409C70.8772 8.89885 71.1325 8.84448 71.3906 8.84448C71.6487 8.84448 71.904 8.89885 72.14 9.00409C72.3761 9.10933 72.5877 9.26312 72.7613 9.45561C72.9349 9.64809 73.0667 9.87502 73.1482 10.1218C73.2297 10.3686 73.2591 10.6299 73.2345 10.8888C73.2595 11.148 73.2305 11.4096 73.1492 11.6568C73.068 11.904 72.9363 12.1314 72.7626 12.3242C72.5889 12.5171 72.3772 12.6712 72.1409 12.7767C71.9046 12.8822 71.649 12.9366 71.3906 12.9366C71.1322 12.9366 70.8766 12.8822 70.6403 12.7767C70.404 12.6712 70.1922 12.5171 70.0186 12.3242C69.8449 12.1314 69.7132 11.904 69.6319 11.6568C69.5507 11.4096 69.5216 11.148 69.5467 10.8888ZM72.4408 10.8888C72.4408 10.0348 72.06 9.5353 71.3919 9.5353C70.7211 9.5353 70.3438 10.0348 70.3438 10.8888C70.3438 11.7497 70.7211 12.2453 71.3919 12.2453C72.0601 12.2453 72.4408 11.7463 72.4408 10.8888Z" fill="black"/>
<path d="M74.2698 8.92048H75.0127V9.54639H75.0703C75.1681 9.32159 75.3331 9.13314 75.5423 9.00731C75.7514 8.88148 75.9943 8.82454 76.2371 8.84442C76.4274 8.83001 76.6184 8.85892 76.796 8.929C76.9737 8.99908 77.1334 9.10855 77.2634 9.24929C77.3934 9.39003 77.4903 9.55843 77.5469 9.74202C77.6035 9.92562 77.6184 10.1197 77.5905 10.3099V12.8605H76.8188V10.5051C76.8188 9.87196 76.5458 9.55708 75.9751 9.55708C75.8459 9.55101 75.717 9.57317 75.5971 9.62202C75.4772 9.67087 75.3693 9.74527 75.2806 9.8401C75.1919 9.93494 75.1246 10.048 75.0834 10.1715C75.0421 10.295 75.0278 10.426 75.0415 10.5555V12.8605H74.2698V8.92048Z" fill="black"/>
<path d="M81.9507 7.93951V8.93841H82.7978V9.59339H81.9507V11.6194C81.9507 12.0321 82.1195 12.2128 82.5036 12.2128C82.6019 12.2125 82.7002 12.2065 82.7978 12.1949V12.8426C82.6593 12.8676 82.5188 12.8809 82.3781 12.8823C81.5199 12.8823 81.1782 12.5781 81.1782 11.8185V9.59335H80.5575V8.93838H81.1782V7.93951H81.9507Z" fill="black"/>
<path d="M83.8519 7.38239H84.6167V9.55365H84.6778C84.7804 9.32675 84.9499 9.13723 85.1632 9.01093C85.3766 8.88462 85.6234 8.82768 85.87 8.84784C86.0592 8.83747 86.2484 8.86931 86.4241 8.94109C86.5997 9.01288 86.7575 9.12284 86.8861 9.26314C87.0147 9.40343 87.111 9.57061 87.1681 9.75272C87.2253 9.93484 87.2418 10.1274 87.2165 10.3167V12.8605H86.4441V10.5085C86.4441 9.87921 86.1532 9.56048 85.608 9.56048C85.4754 9.54952 85.342 9.56789 85.2172 9.61431C85.0923 9.66073 84.979 9.73408 84.8853 9.82923C84.7915 9.92437 84.7195 10.039 84.6743 10.1651C84.6291 10.2913 84.6118 10.4258 84.6235 10.5594V12.8605H83.8519L83.8519 7.38239Z" fill="black"/>
<path d="M91.7159 11.7967C91.611 12.1568 91.3839 12.4683 91.0742 12.6767C90.7644 12.885 90.3919 12.977 90.0216 12.9366C89.764 12.9434 89.508 12.8937 89.2714 12.7909C89.0348 12.688 88.8232 12.5345 88.6514 12.3411C88.4795 12.1476 88.3515 11.9187 88.2763 11.6704C88.201 11.422 88.1802 11.1601 88.2155 10.9029C88.1812 10.6449 88.2023 10.3824 88.2774 10.1333C88.3525 9.88426 88.4798 9.65433 88.6507 9.45915C88.8217 9.26396 89.0323 9.10806 89.2682 9.002C89.5041 8.89594 89.7599 8.84221 90.0182 8.84443C91.1062 8.84443 91.7625 9.59343 91.7625 10.8307V11.102H89.0015V11.1456C88.9894 11.2902 89.0075 11.4357 89.0545 11.5729C89.1015 11.71 89.1764 11.8358 89.2744 11.942C89.3725 12.0483 89.4915 12.1328 89.6238 12.19C89.7561 12.2472 89.8988 12.2759 90.0428 12.2743C90.2274 12.2967 90.4144 12.2632 90.58 12.1781C90.7457 12.0931 90.8825 11.9603 90.973 11.7967L91.7159 11.7967ZM89.0015 10.5269H90.9764C90.9861 10.3947 90.9683 10.2619 90.9241 10.137C90.8798 10.0121 90.8101 9.89793 90.7195 9.80181C90.6289 9.70568 90.5193 9.62973 90.3978 9.57882C90.2763 9.52792 90.1455 9.50319 90.014 9.50623C89.8805 9.50454 89.7481 9.52979 89.6244 9.58049C89.5008 9.6312 89.3885 9.70632 89.2942 9.80145C89.1998 9.89657 89.1253 10.0098 89.0751 10.1344C89.0248 10.259 88.9998 10.3924 89.0015 10.5269H89.0015Z" fill="black"/>
</g>
<defs>
<clipPath id="clip0_7_4040">
<rect width="103.906" height="35" fill="white" transform="translate(0.75)"/>
</clipPath>
</defs>
</svg>
