<svg width="16" height="16" viewBox="0 0 16 16" fill="none" xmlns="http://www.w3.org/2000/svg">
<path d="M11.5333 4.19999C11.4717 4.13819 11.3984 4.08916 11.3177 4.05571C11.2371 4.02225 11.1506 4.00503 11.0633 4.00503C10.976 4.00503 10.8896 4.02225 10.8089 4.05571C10.7283 4.08916 10.655 4.13819 10.5933 4.19999L6.83333 7.95999L7.77333 8.89999L11.5333 5.13333C11.7867 4.87999 11.7867 4.45333 11.5333 4.19999ZM14.36 4.19333L7.77333 10.78L5.45333 8.46666C5.32868 8.34201 5.15962 8.27198 4.98333 8.27198C4.80705 8.27198 4.63798 8.34201 4.51333 8.46666C4.38868 8.59131 4.31865 8.76038 4.31865 8.93666C4.31865 9.11294 4.38868 9.28201 4.51333 9.40666L7.3 12.1933C7.56 12.4533 7.98 12.4533 8.24 12.1933L15.3 5.13999C15.3618 5.07832 15.4108 5.00506 15.4443 4.92441C15.4777 4.84376 15.495 4.75731 15.495 4.66999C15.495 4.58268 15.4777 4.49623 15.4443 4.41558C15.4108 4.33493 15.3618 4.26167 15.3 4.19999H15.2933C15.2332 4.13706 15.161 4.08685 15.0811 4.05235C15.0012 4.01784 14.9151 3.99974 14.8281 3.99912C14.741 3.99849 14.6547 4.01536 14.5743 4.04873C14.4939 4.08209 14.421 4.13126 14.36 4.19333ZM0.746666 9.41333L3.53333 12.2C3.79333 12.46 4.21333 12.46 4.47333 12.2L4.94 11.7333L1.68667 8.46666C1.62499 8.40486 1.55173 8.35583 1.47108 8.32237C1.39043 8.28892 1.30398 8.2717 1.21667 8.2717C1.12935 8.2717 1.0429 8.28892 0.96225 8.32237C0.881601 8.35583 0.808342 8.40486 0.746666 8.46666C0.486666 8.72666 0.486666 9.15333 0.746666 9.41333Z" fill="#01DA91"/>
</svg>
