<svg width="46" height="46" viewBox="0 0 46 46" fill="none" xmlns="http://www.w3.org/2000/svg">
<path d="M39 23V43H7V23" stroke="#01DA91" stroke-width="4.27549" stroke-linecap="round" stroke-linejoin="round"/>
<path d="M43 13H3V23H43V13Z" stroke="#01DA91" stroke-width="4.27549" stroke-linecap="round" stroke-linejoin="round"/>
<path d="M23 43V13" stroke="#01DA91" stroke-width="4.27549" stroke-linecap="round" stroke-linejoin="round"/>
<path d="M23 13H14C12.6739 13 11.4021 12.4732 10.4645 11.5355C9.52678 10.5979 9 9.32608 9 8C9 6.67392 9.52678 5.40215 10.4645 4.46447C11.4021 3.52678 12.6739 3 14 3C21 3 23 13 23 13Z" stroke="#01DA91" stroke-width="4.27549" stroke-linecap="round" stroke-linejoin="round"/>
<path d="M23 13H32C33.3261 13 34.5979 12.4732 35.5355 11.5355C36.4732 10.5979 37 9.32608 37 8C37 6.67392 36.4732 5.40215 35.5355 4.46447C34.5979 3.52678 33.3261 3 32 3C25 3 23 13 23 13Z" stroke="#01DA91" stroke-width="4.27549" stroke-linecap="round" stroke-linejoin="round"/>
</svg>
