<svg width="32" height="32" viewBox="0 0 32 32" fill="none" xmlns="http://www.w3.org/2000/svg">
<path d="M23.0001 14.9999H19.0001C18.6022 14.9999 18.2207 14.8419 17.9394 14.5606C17.6581 14.2793 17.5001 13.8977 17.5001 13.4999C17.5001 13.1021 17.6581 12.7205 17.9394 12.4392C18.2207 12.1579 18.6022 11.9999 19.0001 11.9999H23.0001C23.3979 11.9999 23.7794 12.1579 24.0607 12.4392C24.342 12.7205 24.5001 13.1021 24.5001 13.4999C24.5001 13.8977 24.342 14.2793 24.0607 14.5606C23.7794 14.8419 23.3979 14.9999 23.0001 14.9999ZM13.0001 11.9999H12.5001V11.4999C12.5001 11.1021 12.342 10.7205 12.0607 10.4392C11.7794 10.1579 11.3979 9.9999 11.0001 9.9999C10.6022 9.9999 10.2207 10.1579 9.93941 10.4392C9.65811 10.7205 9.50007 11.1021 9.50007 11.4999V11.9999H9.00007C8.60225 11.9999 8.22071 12.1579 7.93941 12.4392C7.65811 12.7205 7.50007 13.1021 7.50007 13.4999C7.50007 13.8977 7.65811 14.2793 7.93941 14.5606C8.22071 14.8419 8.60225 14.9999 9.00007 14.9999H9.50007V15.4999C9.50007 15.8977 9.65811 16.2793 9.93941 16.5606C10.2207 16.8419 10.6022 16.9999 11.0001 16.9999C11.3979 16.9999 11.7794 16.8419 12.0607 16.5606C12.342 16.2793 12.5001 15.8977 12.5001 15.4999V14.9999H13.0001C13.3979 14.9999 13.7794 14.8419 14.0607 14.5606C14.342 14.2793 14.5001 13.8977 14.5001 13.4999C14.5001 13.1021 14.342 12.7205 14.0607 12.4392C13.7794 12.1579 13.3979 11.9999 13.0001 11.9999ZM27.3751 28.4249C27.086 28.4741 26.7933 28.4992 26.5001 28.4999C25.1747 28.4955 23.9041 27.9702 22.9626 27.0374L22.8876 26.9499L17.9626 21.4874H14.0501L9.11257 26.9624L9.03757 27.0374C8.28549 27.7918 7.31213 28.2863 6.25936 28.4488C5.20659 28.6113 4.12943 28.4333 3.18488 27.9408C2.24032 27.4483 1.47775 26.667 1.0083 25.7108C0.538857 24.7546 0.387071 23.6734 0.57507 22.6249V22.5999L2.61257 12.1374V12.1124C2.93208 10.255 3.90004 8.57122 5.34429 7.36043C6.78854 6.14963 8.61545 5.49037 10.5001 5.4999L21.5001 5.4624C23.372 5.46604 25.1838 6.124 26.6219 7.32241C28.06 8.52082 29.0339 10.1843 29.3751 12.0249V12.0499L31.4251 22.6124C31.6579 23.9201 31.3622 25.2669 30.6028 26.3567C29.8434 27.4465 28.6825 28.1904 27.3751 28.4249ZM21.5001 18.4624C22.8262 18.4624 24.0979 17.9356 25.0356 16.9979C25.9733 16.0603 26.5001 14.7885 26.5001 13.4624C26.5001 12.1363 25.9733 10.8646 25.0356 9.92687C24.0979 8.98919 22.8262 8.4624 21.5001 8.4624L10.5001 8.4999C9.33403 8.49776 8.20409 8.90423 7.30662 9.64869C6.40916 10.3932 5.80091 11.4285 5.58757 12.5749C5.57732 12.6029 5.57306 12.6327 5.57507 12.6624L3.52507 23.1624C3.45373 23.5781 3.51566 24.0058 3.70201 24.3842C3.88835 24.7626 4.18957 25.0724 4.5626 25.2693C4.93563 25.4663 5.36136 25.5402 5.77894 25.4806C6.19652 25.421 6.58455 25.2308 6.88757 24.9374L12.2626 18.9999C12.4016 18.842 12.5728 18.7158 12.7647 18.6295C12.9566 18.5433 13.1647 18.4991 13.3751 18.4999L21.5001 18.4624ZM28.4751 23.1624L27.6001 18.6374C26.9035 19.4647 26.0453 20.1409 25.078 20.6245C24.1107 21.1081 23.0548 21.389 21.9751 21.4499L25.1126 24.9374C25.4156 25.2308 25.8036 25.421 26.2212 25.4806C26.6388 25.5402 27.0645 25.4663 27.4375 25.2693C27.8106 25.0724 28.1118 24.7626 28.2981 24.3842C28.4845 24.0058 28.5464 23.5781 28.4751 23.1624Z" fill="white"/>
</svg>
