<svg width="32" height="32" viewBox="0 0 32 32" fill="none" xmlns="http://www.w3.org/2000/svg">
<path fill-rule="evenodd" clip-rule="evenodd" d="M23.38 3.83867C22.6299 3.08878 21.6127 2.66752 20.552 2.66752C19.4914 2.66752 18.4742 3.08878 17.724 3.83867L15.8387 5.724C15.7587 5.804 15.6814 5.88667 15.6094 5.972C15.5369 5.88618 15.4608 5.80344 15.3814 5.724L13.4934 3.83867C13.1266 3.44787 12.6849 3.13477 12.1948 2.91798C11.7046 2.70119 11.1758 2.58512 10.6399 2.57667C10.104 2.56822 9.57186 2.66756 9.07509 2.86879C8.57831 3.07002 8.12705 3.36904 7.7481 3.74808C7.36915 4.12712 7.07024 4.57845 6.86912 5.07527C6.66801 5.57209 6.56879 6.10426 6.57737 6.64018C6.58595 7.17609 6.70214 7.70481 6.91905 8.19494C7.13596 8.68507 7.44915 9.12661 7.84004 9.49333L9.00937 10.6667H1.33337V18.6667H4.00004V29.3333H28V18.6667H30.6667V10.6667H22.2094L23.38 9.49467C24.1299 8.74455 24.5512 7.72732 24.5512 6.66667C24.5512 5.60601 24.1299 4.58878 23.38 3.83867ZM19.6094 9.49333L21.4947 7.608C21.7376 7.35653 21.872 7.01973 21.8689 6.67013C21.8659 6.32054 21.7257 5.98612 21.4785 5.73891C21.2313 5.4917 20.8968 5.35147 20.5472 5.34843C20.1976 5.3454 19.8608 5.47979 19.6094 5.72267L17.724 7.608C17.4812 7.85947 17.3468 8.19627 17.3498 8.54587C17.3528 8.89546 17.4931 9.22988 17.7403 9.47709C17.9875 9.7243 18.3219 9.86453 18.6715 9.86756C19.0211 9.8706 19.3579 9.73621 19.6094 9.49333ZM13.4947 7.608L11.6094 5.724C11.4864 5.59665 11.3393 5.49508 11.1766 5.4252C11.0139 5.35532 10.8389 5.31854 10.6619 5.317C10.4849 5.31546 10.3093 5.3492 10.1454 5.41624C9.98157 5.48328 9.8327 5.58228 9.70751 5.70747C9.58232 5.83266 9.48332 5.98153 9.41628 6.14539C9.34924 6.30926 9.3155 6.48483 9.31704 6.66187C9.31858 6.83891 9.35536 7.01387 9.42524 7.17654C9.49512 7.33921 9.59669 7.48634 9.72404 7.60933L11.6094 9.49467C11.7324 9.62201 11.8795 9.72359 12.0422 9.79347C12.2048 9.86335 12.3798 9.90013 12.5568 9.90167C12.7339 9.90321 12.9095 9.86947 13.0733 9.80243C13.2372 9.73539 13.386 9.63638 13.5112 9.51119C13.6364 9.386 13.7354 9.23713 13.8025 9.07327C13.8695 8.90941 13.9032 8.73384 13.9017 8.5568C13.9002 8.37976 13.8634 8.2048 13.7935 8.04213C13.7236 7.87946 13.6221 7.731 13.4947 7.608ZM28 13.3333V16H4.00004V13.3333H28ZM17.2227 18.6667H25.3334V26.6667H17.2227V18.6667ZM14.7774 18.6667V26.6667H6.66671V18.6667H14.7774Z" fill="white"/>
</svg>
