<svg width="32" height="32" viewBox="0 0 32 32" fill="none" xmlns="http://www.w3.org/2000/svg">
<path d="M8 6H20V8H8V6ZM8 10H20V12H8V10ZM8 14H14V16H8V14ZM8 24H12V26H8V24Z" fill="white"/>
<path d="M29.707 19.293L26.707 16.293C26.5195 16.1055 26.2652 16.0002 26 16.0002C25.7348 16.0002 25.4805 16.1055 25.293 16.293L16 25.586V30H20.414L29.707 20.707C29.8945 20.5195 29.9998 20.2652 29.9998 20C29.9998 19.7348 29.8945 19.4805 29.707 19.293ZM19.586 28H18V26.414L23 21.414L24.586 23L19.586 28ZM26 21.586L24.414 20L26 18.414L27.586 20L26 21.586ZM12 30H6C5.46973 29.9995 4.96133 29.7886 4.58637 29.4136C4.21141 29.0387 4.00053 28.5303 4 28V4C4.00053 3.46973 4.21141 2.96133 4.58637 2.58637C4.96133 2.21141 5.46973 2.00053 6 2H22C22.5303 2.00053 23.0387 2.21141 23.4136 2.58637C23.7886 2.96133 23.9995 3.46973 24 4V14H22V4H6V28H12V30Z" fill="white"/>
</svg>
