<svg width="32" height="32" viewBox="0 0 32 32" fill="none" xmlns="http://www.w3.org/2000/svg">
<path d="M22.8267 13.1733C22.077 12.4237 21.0602 12.0025 20 12.0025C18.9398 12.0025 17.923 12.4237 17.1733 13.1733C16.4237 13.923 16.0025 14.9398 16.0025 16C16.0025 17.0602 16.4237 18.077 17.1733 18.8267C17.5445 19.1979 17.9852 19.4923 18.4702 19.6932C18.9552 19.8941 19.475 19.9975 20 19.9975C20.525 19.9975 21.0448 19.8941 21.5298 19.6932C22.0148 19.4923 22.4555 19.1979 22.8267 18.8267C23.1979 18.4555 23.4923 18.0148 23.6932 17.5298C23.8941 17.0448 23.9975 16.525 23.9975 16C23.9975 15.475 23.8941 14.9552 23.6932 14.4702C23.4923 13.9852 23.1979 13.5445 22.8267 13.1733ZM9.33333 8V24H30.6667V8H9.33333ZM28 18.6667C27.2933 18.6667 26.6133 18.9467 26.12 19.4533C25.6133 19.9467 25.3333 20.6267 25.3333 21.3333H14.6667C14.6667 20.6267 14.3867 19.9467 13.88 19.4533C13.3867 18.9467 12.7067 18.6667 12 18.6667V13.3333C12.7067 13.3333 13.3867 13.0533 13.88 12.5467C14.3867 12.0533 14.6667 11.3733 14.6667 10.6667H25.3333C25.3333 11.3733 25.6133 12.0533 26.12 12.5467C26.6133 13.0533 27.2933 13.3333 28 13.3333V18.6667ZM6.66667 10.6667H4C3.26667 10.6667 2.66667 10.0667 2.66667 9.33333C2.66667 8.6 3.26667 8 4 8H6.66667V10.6667ZM6.66667 17.3333H2.66667C1.93333 17.3333 1.33333 16.7333 1.33333 16C1.33333 15.2667 1.93333 14.6667 2.66667 14.6667H6.66667V17.3333ZM6.66667 24H1.33333C0.597333 24 0 23.4 0 22.6667C0 21.9333 0.597333 21.3333 1.33333 21.3333H6.66667V24Z" fill="white"/>
</svg>
