<svg width="20" height="19" viewBox="0 0 20 19" fill="none" xmlns="http://www.w3.org/2000/svg">
<path d="M15.3203 5.85156H14.5469V5.07812C14.5469 4.46274 14.3024 3.87256 13.8673 3.43742C13.4321 3.00227 12.8419 2.75781 12.2266 2.75781H4.49219C3.8768 2.75781 3.28662 3.00227 2.85148 3.43742C2.41634 3.87256 2.17188 4.46274 2.17188 5.07812V14.3594C2.17188 14.9748 2.41634 15.5649 2.85148 16.0001C3.28662 16.4352 3.8768 16.6797 4.49219 16.6797H15.3203C15.9357 16.6797 16.5259 16.4352 16.961 16.0001C17.3962 15.5649 17.6406 14.9748 17.6406 14.3594V8.17188C17.6406 7.55649 17.3962 6.96631 16.961 6.53117C16.5259 6.09602 15.9357 5.85156 15.3203 5.85156ZM4.49219 4.30469H12.2266C12.4317 4.30469 12.6284 4.38617 12.7735 4.53122C12.9185 4.67627 13 4.873 13 5.07812V5.85156H4.49219C4.28706 5.85156 4.09033 5.77008 3.94528 5.62503C3.80024 5.47998 3.71875 5.28325 3.71875 5.07812C3.71875 4.873 3.80024 4.67627 3.94528 4.53122C4.09033 4.38617 4.28706 4.30469 4.49219 4.30469ZM16.0938 12.0391H15.3203C15.1152 12.0391 14.9185 11.9576 14.7734 11.8125C14.6284 11.6675 14.5469 11.4708 14.5469 11.2656C14.5469 11.0605 14.6284 10.8638 14.7734 10.7187C14.9185 10.5737 15.1152 10.4922 15.3203 10.4922H16.0938V12.0391ZM16.0938 8.94531H15.3203C14.7049 8.94531 14.1147 9.18977 13.6796 9.62492C13.2445 10.0601 13 10.6502 13 11.2656C13 11.881 13.2445 12.4712 13.6796 12.9063C14.1147 13.3415 14.7049 13.5859 15.3203 13.5859H16.0938V14.3594C16.0938 14.5645 16.0123 14.7612 15.8672 14.9063C15.7222 15.0513 15.5254 15.1328 15.3203 15.1328H4.49219C4.28706 15.1328 4.09033 15.0513 3.94528 14.9063C3.80024 14.7612 3.71875 14.5645 3.71875 14.3594V7.26695C3.96723 7.35436 4.22878 7.39883 4.49219 7.39844H15.3203C15.5254 7.39844 15.7222 7.47992 15.8672 7.62497C16.0123 7.77002 16.0938 7.96675 16.0938 8.17188V8.94531Z" fill="black"/>
</svg>
