<svg width="19" height="20" viewBox="0 0 19 20" fill="none" xmlns="http://www.w3.org/2000/svg">
<path d="M14.2969 6.16406H14.0262C14.2027 5.80268 14.2952 5.40608 14.2969 5.0039C14.2992 4.46507 14.1402 3.93787 13.8404 3.49015C13.5406 3.04244 13.1136 2.69472 12.6145 2.49173C12.1153 2.28875 11.5668 2.23979 11.0396 2.35118C10.5124 2.46256 10.0306 2.72918 9.65625 3.11672C9.28187 2.72918 8.80007 2.46256 8.27287 2.35118C7.74566 2.23979 7.19719 2.28875 6.69805 2.49173C6.1989 2.69472 5.77194 3.04244 5.4721 3.49015C5.17226 3.93787 5.01328 4.46507 5.01562 5.0039C5.01728 5.40608 5.10982 5.80268 5.28633 6.16406H5.01562C4.40024 6.16406 3.81006 6.40852 3.37492 6.84366C2.93977 7.27881 2.69531 7.86899 2.69531 8.48437V10.0312C2.69531 10.2364 2.7768 10.4331 2.92185 10.5781C3.06689 10.7232 3.26362 10.8047 3.46875 10.8047H4.24219V15.4453C4.24219 16.0607 4.48665 16.6509 4.92179 17.086C5.35693 17.5212 5.94711 17.7656 6.5625 17.7656H12.75C13.3654 17.7656 13.9556 17.5212 14.3907 17.086C14.8259 16.6509 15.0703 16.0607 15.0703 15.4453V10.8047H15.8438C16.0489 10.8047 16.2456 10.7232 16.3907 10.5781C16.5357 10.4331 16.6172 10.2364 16.6172 10.0312V8.48437C16.6172 7.86899 16.3727 7.27881 15.9376 6.84366C15.5024 6.40852 14.9123 6.16406 14.2969 6.16406ZM8.88281 16.2187H6.5625C6.35737 16.2187 6.16065 16.1373 6.0156 15.9922C5.87055 15.8472 5.78906 15.6504 5.78906 15.4453V10.8047H8.88281V16.2187ZM8.88281 9.25781H4.24219V8.48437C4.24219 8.27924 4.32367 8.08252 4.46872 7.93747C4.61377 7.79242 4.8105 7.71093 5.01562 7.71093H8.88281V9.25781ZM8.88281 6.16406H7.72266C7.4932 6.16406 7.2689 6.09602 7.07811 5.96854C6.88732 5.84106 6.73862 5.65987 6.65081 5.44788C6.563 5.23588 6.54003 5.00262 6.58479 4.77757C6.62956 4.55252 6.74005 4.3458 6.9023 4.18355C7.06455 4.0213 7.27127 3.9108 7.49632 3.86604C7.72137 3.82127 7.95464 3.84425 8.16663 3.93206C8.37862 4.01987 8.55981 4.16857 8.68729 4.35935C8.81477 4.55014 8.88281 4.77445 8.88281 5.0039V6.16406ZM10.4297 5.0039C10.4297 4.77445 10.4977 4.55014 10.6252 4.35935C10.7527 4.16857 10.9339 4.01987 11.1459 3.93206C11.3579 3.84425 11.5911 3.82127 11.8162 3.86604C12.0412 3.9108 12.2479 4.0213 12.4102 4.18355C12.5724 4.3458 12.6829 4.55252 12.7277 4.77757C12.7725 5.00262 12.7495 5.23588 12.6617 5.44788C12.5739 5.65987 12.4252 5.84106 12.2344 5.96854C12.0436 6.09602 11.8193 6.16406 11.5898 6.16406H10.4297V5.0039ZM13.5234 15.4453C13.5234 15.6504 13.442 15.8472 13.2969 15.9922C13.1519 16.1373 12.9551 16.2187 12.75 16.2187H10.4297V10.8047H13.5234V15.4453ZM15.0703 9.25781H10.4297V7.71093H14.2969C14.502 7.71093 14.6987 7.79242 14.8438 7.93747C14.9888 8.08252 15.0703 8.27924 15.0703 8.48437V9.25781Z" fill="#fff"/>
</svg>
