<svg width="20" height="19" viewBox="0 0 20 19" fill="none" xmlns="http://www.w3.org/2000/svg">
<path d="M10.7867 9.88891C11.1994 9.53168 11.5304 9.08986 11.7573 8.59342C11.9842 8.09698 12.1016 7.55754 12.1016 7.01172C12.1016 5.98608 11.6941 5.00244 10.9689 4.2772C10.2437 3.55197 9.26002 3.14453 8.23438 3.14453C7.20873 3.14453 6.2251 3.55197 5.49986 4.2772C4.77462 5.00244 4.36719 5.98608 4.36719 7.01172C4.36718 7.55754 4.4846 8.09698 4.71146 8.59342C4.93833 9.08986 5.26934 9.53168 5.68203 9.88891C4.59933 10.3792 3.68073 11.1709 3.03609 12.1694C2.39144 13.1679 2.04801 14.331 2.04688 15.5195C2.04688 15.7247 2.12836 15.9214 2.27341 16.0664C2.41846 16.2115 2.61518 16.293 2.82031 16.293C3.02544 16.293 3.22217 16.2115 3.36722 16.0664C3.51226 15.9214 3.59375 15.7247 3.59375 15.5195C3.59375 14.2888 4.08267 13.1084 4.95296 12.2381C5.82324 11.3678 7.0036 10.8789 8.23438 10.8789C9.46515 10.8789 10.6455 11.3678 11.5158 12.2381C12.3861 13.1084 12.875 14.2888 12.875 15.5195C12.875 15.7247 12.9565 15.9214 13.1015 16.0664C13.2466 16.2115 13.4433 16.293 13.6484 16.293C13.8536 16.293 14.0503 16.2115 14.1953 16.0664C14.3404 15.9214 14.4219 15.7247 14.4219 15.5195C14.4207 14.331 14.0773 13.1679 13.4327 12.1694C12.788 11.1709 11.8694 10.3792 10.7867 9.88891ZM8.23438 9.33203C7.77546 9.33203 7.32685 9.19595 6.94528 8.94099C6.5637 8.68603 6.2663 8.32365 6.09069 7.89966C5.91507 7.47568 5.86912 7.00915 5.95865 6.55905C6.04818 6.10895 6.26917 5.69551 6.59367 5.37101C6.91817 5.04651 7.33161 4.82552 7.7817 4.73599C8.2318 4.64646 8.69834 4.69241 9.12232 4.86803C9.5463 5.04365 9.90868 5.34105 10.1636 5.72262C10.4186 6.1042 10.5547 6.5528 10.5547 7.01172C10.5547 7.6271 10.3102 8.21729 9.87508 8.65243C9.43994 9.08757 8.84976 9.33203 8.23438 9.33203ZM17.2913 7.49898C17.2194 7.42649 17.1339 7.36895 17.0396 7.32969C16.9454 7.29042 16.8443 7.2702 16.7422 7.2702C16.6401 7.2702 16.539 7.29042 16.4447 7.32969C16.3505 7.36895 16.2649 7.42649 16.193 7.49898L14.6462 9.04586L14.1666 8.55859C14.0947 8.4861 14.0092 8.42856 13.9149 8.3893C13.8207 8.35003 13.7196 8.32981 13.6175 8.32981C13.5154 8.32981 13.4143 8.35003 13.3201 8.3893C13.2258 8.42856 13.1403 8.4861 13.0684 8.55859C12.9243 8.70351 12.8434 8.89954 12.8434 9.10387C12.8434 9.3082 12.9243 9.50423 13.0684 9.64914L14.1048 10.6855C14.2497 10.8296 14.4457 10.9105 14.65 10.9105C14.8544 10.9105 15.0504 10.8296 15.1953 10.6855L17.2604 8.62047C17.3385 8.55034 17.4015 8.46504 17.4455 8.36978C17.4896 8.27452 17.5138 8.17129 17.5167 8.06637C17.5196 7.96145 17.5011 7.85704 17.4624 7.7595C17.4236 7.66195 17.3654 7.57332 17.2913 7.49898Z" fill="#fff"/>
</svg>
