<svg width="32" height="32" viewBox="0 0 32 32" fill="none" xmlns="http://www.w3.org/2000/svg">
<path d="M30.6666 13.3333C30.6666 12.6261 30.3856 11.9478 29.8855 11.4477C29.3854 10.9476 28.7072 10.6667 27.9999 10.6667H19.5733L20.8533 4.57333C20.8799 4.44 20.8933 4.29333 20.8933 4.14667C20.8933 3.6 20.6666 3.09333 20.3066 2.73333L18.8933 1.33333L10.1199 10.1067C9.62659 10.6 9.33325 11.2667 9.33325 12V25.3333C9.33325 26.0406 9.6142 26.7189 10.1143 27.219C10.6144 27.719 11.2927 28 11.9999 28H23.9999C25.1066 28 26.0533 27.3333 26.4533 26.3733L30.4799 16.9733C30.5999 16.6667 30.6666 16.3467 30.6666 16V13.3333ZM1.33325 28H6.66658V12H1.33325V28Z" fill="#F17706"/>
</svg>
