<svg width="28" height="28" viewBox="0 0 28 28" fill="none" xmlns="http://www.w3.org/2000/svg">
<path d="M24.2238 14.5934C24.6832 13.9863 24.9375 13.2426 24.9375 12.4687C24.9375 11.241 24.2512 10.0789 23.1465 9.43085C22.8621 9.26404 22.5383 9.17625 22.2086 9.17656H15.6516L15.8156 5.81601C15.8539 5.0039 15.5668 4.23281 15.009 3.64491C14.7352 3.35515 14.405 3.1246 14.0386 2.96751C13.6722 2.81043 13.2775 2.73015 12.8789 2.73163C11.457 2.73163 10.1992 3.68866 9.82188 5.05859L7.47305 13.5625H7.46484V25.2656H20.3793C20.6309 25.2656 20.877 25.2164 21.1039 25.118C22.4055 24.5629 23.2449 23.2914 23.2449 21.8805C23.2449 21.5359 23.1957 21.1969 23.0973 20.8687C23.5566 20.2617 23.8109 19.518 23.8109 18.7441C23.8109 18.3996 23.7617 18.0605 23.6633 17.7324C24.1227 17.1254 24.377 16.3816 24.377 15.6078C24.3715 15.2633 24.3223 14.9215 24.2238 14.5934ZM3.0625 14.4375V24.3906C3.0625 24.8746 3.45352 25.2656 3.9375 25.2656H5.71484V13.5625H3.9375C3.45352 13.5625 3.0625 13.9535 3.0625 14.4375Z" fill="#E6DD09"/>
</svg>
