<svg width="91" height="30" viewBox="0 0 91 30" fill="none" xmlns="http://www.w3.org/2000/svg">
<g clip-path="url(#clip0_7_4017)">
<path d="M37.6671 8.27546C40.0659 8.27546 41.1709 9.50511 40.7162 11.7556C40.4854 12.8858 39.7668 13.8492 38.7608 14.3773C39.7203 14.8668 40.2023 15.8111 39.9113 17.2634C39.3951 19.7297 37.6649 20.8642 35.1115 20.8642H29.8025L32.424 8.27546H37.6671ZM34.9774 18.5441C35.8869 18.5441 36.4507 18.1242 36.6736 17.1103C36.8964 16.0964 36.4848 15.6765 35.5776 15.6765H34.1361L33.5381 18.5441H34.9774ZM36.0233 13.3147C36.7759 13.3147 37.2897 12.8089 37.4625 11.9528C37.6512 11.0596 37.342 10.5886 36.5872 10.5886H35.2002L34.6341 13.3147H36.0233ZM50.1929 8.27546C50.2253 8.66347 50.2023 9.05423 50.1246 9.4355C50.0323 9.88638 49.8793 10.3221 49.6699 10.7301H45.0089L44.4791 13.2822H48.283C48.3135 13.6802 48.2906 14.0807 48.2148 14.4724C48.1261 14.8978 47.9815 15.3091 47.785 15.6951H43.9903L43.4264 18.3887H48.258C48.2922 18.793 48.2631 19.2002 48.1716 19.5951C48.0943 20.0345 47.95 20.4588 47.7441 20.8526H39.6543L42.2782 8.27546H50.1929ZM60.2834 8.27546C60.3064 8.73372 60.2659 9.19299 60.1629 9.63967C60.0667 10.1207 59.9141 10.588 59.7082 11.0317H56.8047L54.7834 20.7111C54.2356 20.8174 53.679 20.8702 53.1214 20.8688C52.5865 20.8816 52.0522 20.8286 51.5298 20.7111L53.5511 11.0248H50.5498C50.5156 10.5734 50.5509 10.1193 50.6544 9.67911C50.7472 9.19721 50.9 8.7294 51.1091 8.28707L60.2834 8.27546ZM64.301 8.27546C64.9867 8.25474 65.6726 8.30762 66.3474 8.43323L67.5456 20.7111C66.9826 20.8297 66.4082 20.8827 65.8335 20.8688C65.3204 20.8848 64.8074 20.8317 64.3079 20.7111L64.101 18.4049H60.1357L58.9715 20.7111C58.4416 20.8247 57.9009 20.8776 57.3595 20.8688C56.8533 20.8805 56.3476 20.8275 55.8543 20.7111L62.1592 8.43787C62.867 8.31879 63.5838 8.26444 64.301 8.27546ZM63.5803 11.1779C63.3615 11.9147 63.0745 12.6287 62.7231 13.31L61.2861 16.108H63.8895L63.6485 13.31C63.5873 12.6007 63.5873 11.8872 63.6485 11.1779H63.5803ZM72.675 14.955C72.4981 13.8685 72.4122 12.7687 72.4181 11.6674H72.3203C72.2101 12.837 72.0332 13.999 71.7905 15.1475L70.6423 20.7157C70.1655 20.8337 69.6754 20.8867 69.1849 20.8735C68.7398 20.8959 68.2941 20.8426 67.8662 20.7157L70.4195 8.44251C71.145 8.3177 71.8803 8.26177 72.6159 8.27546C73.3016 8.25057 73.9879 8.30349 74.6622 8.43323L75.6581 14.1151C75.8199 15.309 75.8996 16.5129 75.8968 17.7182H75.965C75.965 17.7182 76.1924 15.8459 76.5994 13.9063L77.7362 8.43323C78.2148 8.32592 78.7036 8.27301 79.1936 8.27546C79.6445 8.25926 80.0952 8.31245 80.5306 8.43323L77.9613 20.7111C77.2542 20.8354 76.5368 20.8882 75.8195 20.8688C75.1197 20.8826 74.4202 20.8298 73.73 20.7111L72.675 14.955ZM86.7195 8.04346C90.0277 8.04346 91.6898 10.2986 90.7303 14.8622C89.7708 19.4258 87.4062 21.0869 84.0821 21.0869C80.7579 21.0869 79.1414 18.8945 80.0895 14.3309C81.0308 9.81832 83.4136 8.04346 86.7195 8.04346ZM86.2398 10.5445C85.0234 10.5445 84.1662 11.3124 83.4818 14.5652C82.7974 17.8179 83.3613 18.5697 84.5777 18.5697C85.7941 18.5697 86.6695 17.8017 87.338 14.5652C88.0064 11.3287 87.4903 10.5538 86.2398 10.5538V10.5445Z" fill="white"/>
<path opacity="0.1" d="M79.17 8.17102C78.7588 8.07514 78.333 8.03289 77.907 8.04569C77.4433 8.04374 76.9807 8.08577 76.5278 8.17102L75.7575 11.3043L78.4256 11.1882L79.17 8.17102ZM86.7745 8.04346C84.048 8.04346 81.9489 8.9885 80.7625 11.3043L84.3241 11.163C84.8625 10.284 85.5014 10.0253 86.2931 10.0253C87.0848 10.0253 87.5594 10.2565 87.6621 11.0254L91 10.8896C90.7171 8.99584 89.1839 8.04346 86.7745 8.04346ZM48.2845 12.0703H44.7959L45.2838 10.0177H49.5586C49.7498 9.68915 49.8901 9.33886 49.9757 8.97647C50.0448 8.66957 50.0659 8.35555 50.0382 8.04346H42.769L41.6325 12.8261L48.2929 12.5088C48.2987 12.3626 48.2959 12.2163 48.2845 12.0703ZM41.5271 11.5561C42.0052 9.27989 40.8433 8.04346 38.3211 8.04346H32.808L31.395 14.5652L39.5499 14.1601C40.5683 13.6196 41.2917 12.6669 41.5271 11.5561ZM38.1035 11.7504C37.9242 12.6145 37.3863 13.125 36.5902 13.125H35.1318L35.7271 10.3852H37.1878C37.9792 10.3852 38.3043 10.8535 38.1059 11.7551L38.1035 11.7504ZM57.5288 10.5106H60.5892C60.8053 10.1134 60.9656 9.69507 61.0666 9.26455C61.1734 8.86456 61.2152 8.45353 61.1908 8.04346H51.5584C51.3394 8.43959 51.179 8.85826 51.081 9.28947C50.9737 9.6837 50.9374 10.09 50.9736 10.4939H54.1223L53.547 12.8261L57.0012 12.6745L57.5288 10.5106ZM72.2437 11.6716H72.3177C72.3177 11.6716 72.3177 12.0581 72.3314 12.6626L74.8475 12.504L74.2453 8.21816C73.6673 8.07996 73.079 8.02347 72.4912 8.0497C71.8615 8.03214 71.2319 8.08854 70.6104 8.21816L69.8425 12.8261L72.1521 12.6774C72.2222 12.0506 72.2437 11.6716 72.2437 11.6716ZM63.3466 10.8306H63.4122C63.3595 11.4291 63.3529 12.0308 63.3926 12.6303L66.43 12.4724L66.0167 8.19889C65.3677 8.07855 64.708 8.02785 64.0486 8.04762C63.3589 8.03558 62.6695 8.08621 61.9886 8.19889L59.605 12.8261L62.6359 12.6681C62.9234 12.0771 63.1612 11.4624 63.3466 10.8306Z" fill="white"/>
<path d="M25.8724 17.0436C25.755 16.772 25.6165 16.5094 25.4581 16.2583C25.2587 15.9489 25.0395 15.6523 24.8269 15.3536C24.7348 15.2255 24.6318 15.0911 24.5441 14.9417C24.4189 14.6936 24.455 14.397 24.6362 14.1842C26.3546 11.8028 26.188 9.43421 25.7562 8.06427C25.1929 6.28036 23.4197 4.50072 21.1818 3.18412C19.7173 2.33495 18.1695 1.63013 16.5613 1.08013C15.4078 0.662182 14.2189 0.343722 13.0082 0.128426C12.1988 -0.0243544 11.3685 -0.0409543 10.5533 0.0793466C9.40038 0.183906 8.18608 0.416497 7.05287 0.629884C5.72678 0.875278 4.20342 1.05666 3.14913 1.94861C2.17812 2.76375 1.61042 3.95871 1.27068 5.13874C0.649036 7.36445 0.267773 9.64725 0.133094 11.95C-0.0144754 14.2312 -0.0393508 16.5182 0.0585696 18.8019C0.10353 20.1315 0.25006 21.456 0.496946 22.7645C0.823537 24.446 1.39124 26.1979 2.4543 27.5849C2.7392 27.9578 3.07893 28.2878 3.46257 28.5643C4.45768 29.2642 5.72021 29.3859 6.90602 29.4925C9.20969 29.7059 11.5945 30.408 13.8762 29.6718C14.479 29.5288 15.0796 29.3645 15.6648 29.1725C16.7961 28.7994 17.9041 28.3627 18.9833 27.8644C20.1271 27.3427 21.2164 26.7145 22.2361 25.9887C23.2243 25.2954 24.1094 24.4725 24.8663 23.5433C25.5511 22.6629 26.0285 21.6467 26.2647 20.5666C26.2932 20.4407 26.3349 20.3127 26.3502 20.1846C26.4736 19.115 26.3089 18.0325 25.8724 17.0436ZM13.4751 20.6349C13.1208 20.8886 12.7504 21.1202 12.366 21.3284C11.3709 21.8768 10.3122 22.438 9.2053 22.7346C8.8314 22.8388 8.44553 22.8969 8.05676 22.9074C7.97785 22.9074 7.22603 22.8946 7.21507 22.8413C5.77719 15.0996 7.21507 7.16591 7.21507 7.16591C7.31809 6.9824 8.31101 7.15098 8.4228 7.16591C9.2937 7.35285 10.1406 7.6334 10.9478 8.00239C11.7076 8.30033 12.437 8.66682 13.1266 9.09706C13.9705 9.64546 14.9853 10.5502 15.0993 11.598C15.1957 12.4878 14.9086 13.1749 14.4549 13.9324C14.2949 14.1991 13.9902 14.5299 14.0428 14.8606C14.1042 15.2597 14.4483 15.584 14.6828 15.8934C14.8959 16.1692 15.072 16.4704 15.2067 16.7896C15.8423 18.341 14.6872 19.7621 13.4751 20.6349Z" fill="url(#paint0_linear_7_4017)"/>
<path d="M25.8695 17.0399C25.753 16.7687 25.6145 16.5068 25.4554 16.257C25.256 15.9455 25.0347 15.6489 24.8221 15.3481C24.7201 15.2139 24.6257 15.0743 24.5395 14.93C24.4159 14.6822 24.45 14.3874 24.6271 14.1726C26.345 11.7917 26.1784 9.42575 25.7468 8.0561C25.1859 6.27897 23.4154 4.4997 21.1739 3.18338C19.7101 2.33399 18.1628 1.6293 16.5549 1.07983C15.4025 0.662262 14.2148 0.343875 13.0053 0.128331C12.1954 -0.024326 11.3646 -0.0409217 10.549 0.0792628C9.39207 0.185934 8.18256 0.422743 7.05193 0.636084C5.7241 0.881427 4.20344 1.0777 3.14731 1.95453C2.05174 2.8655 1.61351 3.95994 1.26731 5.13972C0.647788 7.36303 0.268126 9.64318 0.134486 11.9432C-0.0139254 14.2259 -0.0395238 16.5146 0.0577955 18.8C0.104117 20.1321 0.250585 21.459 0.496025 22.7703C0.822505 24.4514 1.37248 26.1837 2.44395 27.579C2.73538 27.9541 3.08331 28.2843 3.47598 28.5582C4.47076 29.258 5.73286 29.3796 6.91827 29.4863C9.22336 29.6996 11.6117 30.41 13.8927 29.674C14.4931 29.5311 15.0956 29.3689 15.6807 29.1748C16.8126 28.8009 17.9217 28.3643 19.0024 27.867C20.1421 27.3415 21.2273 26.7107 22.2431 25.9832C23.2315 25.2906 24.1164 24.4677 24.8725 23.5383C25.5543 22.6581 26.0293 21.6429 26.2639 20.5643C26.2924 20.4384 26.334 20.3083 26.3515 20.1803C26.4727 19.1105 26.3066 18.0285 25.8695 17.0399ZM23.4592 23.726C23.4592 23.726 21.7063 25.9085 16.1145 28.0078C16.1145 28.0078 13.0228 29.2879 11.2261 28.8825C9.75247 28.6606 8.49378 27.7288 7.88018 26.4056C7.88018 26.4056 6.45594 24.5453 6.16233 16.4084C6.16233 16.4084 6.16233 7.76382 7.69613 4.21809C7.69613 4.21809 8.70186 0.973164 12.1485 1.06703C12.1485 1.06703 16.3599 1.26117 21.6406 4.58717C21.6406 4.58717 26.2069 6.93393 24.8791 11.8024C24.5067 12.7057 24.0296 13.5646 23.457 14.3625C23.2972 14.5904 23.3199 14.8954 23.5118 15.0985C23.5118 15.0985 25.6066 17.3471 25.5211 19.4101C25.5211 19.4101 25.7512 21.71 23.4614 23.726H23.4592Z" fill="#373531"/>
<path d="M25.8613 17.0396C25.7436 16.7685 25.6045 16.5067 25.4451 16.2566C25.2458 15.9473 25.0268 15.6508 24.8121 15.3499C24.7102 15.2157 24.6159 15.0761 24.5296 14.9318C24.4127 14.6842 24.4555 14.3929 24.6391 14.1873C25.9621 12.4201 26.3668 10.1544 25.7342 8.05592C25.1823 6.27881 23.4015 4.49957 21.1674 3.18327C19.7034 2.33457 18.1559 1.6306 16.548 1.08189C15.3964 0.663336 14.2089 0.34493 12.9997 0.130404C12.1903 -0.0241416 11.3597 -0.0414629 10.5443 0.0792033C9.39437 0.185872 8.17873 0.424811 7.04852 0.638149C5.72118 0.881355 4.18576 1.06483 3.14097 1.95445C1.90344 3.01047 1.60774 3.95982 1.26605 5.13745C0.646772 7.36217 0.267255 9.64371 0.133649 11.9451C-0.0136107 14.2271 -0.039199 16.515 0.0569879 18.7996C0.103248 20.1289 0.249664 21.453 0.495054 22.7613C0.821413 24.4424 1.38871 26.1939 2.45102 27.5785C2.73776 27.9532 3.08116 28.2833 3.46952 28.5577C4.46393 29.2596 5.72775 29.3791 6.91053 29.4879C9.21476 29.7012 11.6022 30.4095 13.8824 29.6735C14.4825 29.5327 15.0848 29.3684 15.6697 29.1764C16.8016 28.8027 17.9103 28.3653 18.9902 27.8665C20.1367 27.3491 21.2289 26.7247 22.2516 26.0019C23.2398 25.307 24.1243 24.4821 24.88 23.5507C25.5623 22.6662 26.0371 21.6466 26.2709 20.5639C26.2993 20.4381 26.3388 20.3101 26.3541 20.1821C26.471 19.1107 26.3012 18.0281 25.8613 17.0396ZM23.6841 24.1053C23.6841 24.1053 21.7632 26.3326 15.9697 28.5129C15.9697 28.5129 12.8003 29.7716 10.932 29.3492C9.39586 29.1702 8.06717 28.223 7.42745 26.851C7.42745 26.851 5.95117 24.9182 5.64452 16.4721C5.64452 16.4721 5.64452 7.49057 7.2347 3.81902C7.2347 3.81902 8.25102 0.527213 11.8344 0.618949C11.8344 0.618949 16.2304 0.746952 21.7106 4.19876C21.7106 4.19876 26.5994 6.72255 25.2151 11.7723C25.2151 11.7723 24.9391 12.839 23.9009 14.2833C23.9009 14.2833 23.6249 14.6715 23.8067 14.8998C23.8067 14.8998 25.9971 17.3916 25.9073 19.5399C25.9138 19.5463 26.0606 22.0125 23.6841 24.1053Z" fill="url(#paint1_linear_7_4017)"/>
<path d="M25.2712 16.4092C25.0965 16.1546 24.9331 15.8957 24.7516 15.6455C24.4974 15.2852 24.2251 15.0263 24.1321 14.5948C24.1245 14.3802 24.1761 14.1675 24.2818 13.9777C25.6933 12.0662 26.1585 10.9918 25.9611 9.33914C25.4051 4.64444 17.8394 2.57326 16.1647 2.06193C11.3584 0.601313 9.82896 2.2971 8.99841 4.82352C8.74707 5.51943 8.55285 6.23282 8.41748 6.95727C8.5264 6.76094 9.52942 6.99179 9.64288 7.01337C10.5364 7.21279 11.4074 7.4946 12.2434 7.85479C13.0265 8.15545 13.7786 8.52453 14.49 8.95726C15.3591 9.50958 16.403 10.42 16.5323 11.4729C16.6322 12.3682 16.3372 13.0608 15.8697 13.8224C15.7041 14.0942 15.3909 14.4265 15.4431 14.7566C15.5066 15.1579 15.8606 15.488 16.1034 15.7965C16.3153 16.0778 16.4899 16.3829 16.6231 16.7048C17.2812 18.215 16.1034 19.6929 14.8554 20.571C14.4919 20.8231 14.1131 21.0543 13.7207 21.2636C12.695 21.8137 11.6058 22.379 10.4643 22.6767C10.0788 22.7821 9.68081 22.8409 9.2798 22.8515C9.20037 22.8515 8.45379 22.8385 8.42656 22.7868C8.61717 23.7641 8.78964 24.4351 8.89856 24.7889C9.68599 27.3779 11.0317 28.4221 13.4371 28.2409C15.6814 28.0661 26.39 24.8817 26.39 19.2852C26.3741 18.2086 25.8771 17.2808 25.2712 16.4092Z" fill="#FBB03B"/>
<path d="M9.04081 28.9252C6.95429 27.552 6.28129 25.0194 5.9267 22.8719C5.79644 22.057 5.68549 21.242 5.57935 20.4228C5.50698 19.8111 5.44427 19.1993 5.39603 18.5876C5.21817 16.4962 5.20285 14.3965 5.35019 12.3033C5.40567 11.5782 5.46839 10.8552 5.5504 10.1301C5.65895 9.18042 5.77956 8.23072 5.96047 7.28958C6.48874 4.53032 7.40777 1.30049 10.6739 0.181812C10.9128 0.0960861 11.1621 0.0350792 11.4168 0C10.1432 0.111226 8.96362 0.305871 7.71412 0.517629C6.26682 0.763609 4.64102 0.96681 3.49282 1.85876C2.2385 2.84268 1.72712 3.85441 1.35082 5.03084C0.66584 7.26743 0.247052 9.56151 0.101314 11.8755C-0.0337713 14.1719 -0.0337713 16.473 0.101314 18.7694C0.151081 20.0922 0.312342 21.41 0.583748 22.7115C0.943161 24.3991 1.48831 26.1809 2.65821 27.5712C2.97377 27.9462 3.35011 28.2778 3.77505 28.5551C4.87258 29.2567 6.26199 29.3786 7.56698 29.4856C10.1022 29.6995 12.7314 30.4117 15.2425 29.6717C13.1415 30.1251 10.8499 30.1123 9.04081 28.9252Z" fill="url(#paint2_linear_7_4017)"/>
<path opacity="0.7" d="M8.41748 6.88656C8.41748 6.88656 8.40441 4.94894 10.4714 2.00161C10.4714 2.00161 11.898 0.802437 15.7989 2.19537C16.7137 2.48601 20.8281 3.6572 23.2043 6.13735C23.2043 6.13735 24.1932 7.11692 24.57 8.26227L15.7401 11.3043C15.7358 11.2701 15.7285 11.2362 15.7183 11.2031C15.4374 10.3834 14.8908 9.67814 14.1632 9.19664C13.8616 8.97613 13.5467 8.7741 13.2201 8.59167L13.1264 8.55076C12.6558 8.29686 12.1715 8.06831 11.6759 7.86614C11.6759 7.86614 9.60453 6.95761 8.41748 6.88656Z" fill="url(#paint3_linear_7_4017)"/>
<path opacity="0.85" d="M15.2425 12.8261C15.2425 12.8261 20.7186 12.1579 24.3801 12.1709C24.3801 12.1709 25.316 11.0741 25.4556 10.0014C25.5303 9.33972 25.4329 8.67267 25.1696 8.04346L15.8855 10.664C15.946 10.9084 15.9545 11.1595 15.9107 11.4063V11.4843C15.804 11.964 15.5766 12.4208 15.2425 12.8261Z" fill="url(#paint4_linear_7_4017)"/>
<path d="M24.2334 14.5394C24.2334 14.5394 25.323 13.4392 25.48 13.0435L15.922 13.8417C15.7292 14.1522 15.502 14.4511 15.2425 14.7356L24.2334 14.5394Z" fill="url(#paint5_linear_7_4017)"/>
<path opacity="0.85" d="M15.4564 15.089L23.66 14.5652C23.4864 15.049 23.4167 15.6619 23.4675 16.2574L15.2425 16.1992C15.2692 15.798 15.3427 15.4168 15.4564 15.089Z" fill="#CC5827"/>
<path d="M15.252 14.5652L23.5251 14.5908C23.692 14.9295 23.9021 15.2491 24.151 15.5429C24.4026 15.9002 25.3252 17.1135 25.48 17.8261C25.48 17.8261 21.609 17.1213 16.4477 16.6325C16.4477 16.6325 15.9444 15.6332 15.6563 15.3525C15.6692 15.3525 15.1681 14.8362 15.252 14.5652Z" fill="url(#paint6_linear_7_4017)"/>
<path opacity="0.85" d="M15.6848 16.9565C15.6848 16.9565 20.7261 17.378 25.3091 18.116C25.3091 18.116 26.0836 19.7426 24.3352 21.7392L15.2425 18.955C15.2425 18.955 16.0606 18.0435 15.6848 16.9565Z" fill="url(#paint7_linear_7_4017)"/>
<path d="M7.0546 21.9921L10.2375 26.7392C9.74151 26.6085 9.29784 26.3838 8.94869 26.0864C8.64067 25.8515 8.37726 25.5852 8.16601 25.2953C7.93765 24.9835 7.7456 24.6572 7.59204 24.3202C7.38261 23.8637 7.21352 23.3972 7.08591 22.9237C6.93459 22.3996 6.82501 21.9565 6.82501 21.9565C6.89619 21.9833 6.9753 21.9955 7.0546 21.9921Z" fill="url(#paint8_linear_7_4017)"/>
<path d="M9.02441 6.22971C9.02441 6.22971 9.07499 5.17658 10.0776 3.63835C10.6031 2.91002 11.1882 2.20332 11.83 1.52173C11.83 1.52173 10.506 1.95086 9.6849 3.32117C9.29353 3.97883 8.96942 4.65496 8.715 5.3445C8.58669 5.65972 8.48732 5.98032 8.41748 6.30434C8.41748 6.30434 8.57219 6.19654 9.02441 6.22971Z" fill="url(#paint9_linear_7_4017)"/>
<path opacity="0.85" d="M15.8503 18.6957L24.57 22.0836C24.57 22.0836 23.7935 23.3509 21.9303 24.6903C21.7389 24.8298 21.5454 24.967 21.3452 25.0995C20.9712 25.3483 20.5775 25.5925 20.1244 25.8483C19.3752 26.2782 18.6041 26.664 17.8147 27.0039C16.49 27.5814 15.1193 28.0327 13.7188 28.3526C13.4042 28.4107 12.256 28.6735 11.1011 28.2038L8.41748 22.6231C8.82259 22.6612 9.23039 22.6534 9.63392 22.5998C10.0321 22.5184 10.6986 22.4092 12.2516 21.5883C12.7245 21.3209 13.7914 20.6861 13.9168 20.5954C14.4498 20.2484 14.9372 19.8285 15.3664 19.3468C15.5453 19.145 15.7072 18.9272 15.8503 18.6957Z" fill="url(#paint10_linear_7_4017)"/>
</g>
<defs>
<linearGradient id="paint0_linear_7_4017" x1="0.63336" y1="2069.63" x2="10564.7" y2="2069.63" gradientUnits="userSpaceOnUse">
<stop offset="0.06" stop-color="#F07422"/>
<stop offset="0.83" stop-color="#AF3424"/>
</linearGradient>
<linearGradient id="paint1_linear_7_4017" x1="0.84448" y1="2069.71" x2="10561.8" y2="2069.71" gradientUnits="userSpaceOnUse">
<stop offset="0.43" stop-color="#BDBEC0"/>
<stop offset="0.65" stop-color="white"/>
<stop offset="1" stop-color="#A8AAAD"/>
</linearGradient>
<linearGradient id="paint2_linear_7_4017" x1="3046.06" y1="207.207" x2="3046.06" y2="4224.29" gradientUnits="userSpaceOnUse">
<stop stop-color="#595A5C" stop-opacity="0.4"/>
<stop offset="0.01" stop-color="#646667" stop-opacity="0.46"/>
<stop offset="0.03" stop-color="#858786" stop-opacity="0.62"/>
<stop offset="0.05" stop-color="#A1A3A1" stop-opacity="0.76"/>
<stop offset="0.07" stop-color="#B6B9B5" stop-opacity="0.86"/>
<stop offset="0.09" stop-color="#C5C9C3" stop-opacity="0.94"/>
<stop offset="0.11" stop-color="#CED2CC" stop-opacity="0.98"/>
<stop offset="0.13" stop-color="#D1D5CF"/>
<stop offset="0.48" stop-color="#D2D3D4"/>
<stop offset="0.69" stop-color="#424143" stop-opacity="0.1"/>
<stop offset="0.71" stop-color="#59595A" stop-opacity="0.26"/>
<stop offset="0.74" stop-color="#797B7A" stop-opacity="0.48"/>
<stop offset="0.78" stop-color="#949794" stop-opacity="0.67"/>
<stop offset="0.81" stop-color="#A8ADA8" stop-opacity="0.81"/>
<stop offset="0.84" stop-color="#B7BCB7" stop-opacity="0.92"/>
<stop offset="0.87" stop-color="#C0C6C0" stop-opacity="0.98"/>
<stop offset="0.89" stop-color="#C3C9C3"/>
<stop offset="1" stop-color="#373531"/>
</linearGradient>
<linearGradient id="paint3_linear_7_4017" x1="3424.48" y1="616.784" x2="2679.18" y2="1674.61" gradientUnits="userSpaceOnUse">
<stop stop-color="#E05926"/>
<stop offset="1" stop-color="#FBB03B"/>
</linearGradient>
<linearGradient id="paint4_linear_7_4017" x1="-196.223" y1="567.136" x2="3647.05" y2="-632.99" gradientUnits="userSpaceOnUse">
<stop stop-color="#DB8B27"/>
<stop offset="1" stop-color="#BC4026"/>
</linearGradient>
<linearGradient id="paint5_linear_7_4017" x1="2093.21" y1="-46.8971" x2="2092.31" y2="155.052" gradientUnits="userSpaceOnUse">
<stop stop-color="#E45B25"/>
<stop offset="1" stop-color="#FBB03B"/>
</linearGradient>
<linearGradient id="paint6_linear_7_4017" x1="3920.15" y1="241.869" x2="-271.492" y2="127.114" gradientUnits="userSpaceOnUse">
<stop stop-color="#E45B25"/>
<stop offset="1" stop-color="#FBB03B"/>
</linearGradient>
<linearGradient id="paint7_linear_7_4017" x1="-322.964" y1="158.533" x2="3194.27" y2="1195.16" gradientUnits="userSpaceOnUse">
<stop stop-color="#DB8B27"/>
<stop offset="1" stop-color="#BC4026"/>
</linearGradient>
<linearGradient id="paint8_linear_7_4017" x1="39.1755" y1="123.768" x2="1960.61" y2="574.627" gradientUnits="userSpaceOnUse">
<stop offset="0.06" stop-color="#EFA133"/>
<stop offset="0.83" stop-color="#F26222"/>
</linearGradient>
<linearGradient id="paint9_linear_7_4017" x1="89.3483" y1="740.484" x2="1160.65" y2="342.576" gradientUnits="userSpaceOnUse">
<stop offset="0.06" stop-color="#EFA133"/>
<stop offset="0.83" stop-color="#F26222"/>
</linearGradient>
<linearGradient id="paint10_linear_7_4017" x1="4169.37" y1="1116.46" x2="3451.66" y2="80.0578" gradientUnits="userSpaceOnUse">
<stop stop-color="#E45B25"/>
<stop offset="1" stop-color="#FBB03B"/>
</linearGradient>
<clipPath id="clip0_7_4017">
<rect width="91" height="30" fill="white"/>
</clipPath>
</defs>
</svg>
